<?xml version="1.0" encoding="utf-8"?>
<svg version="1.1" id="Layer_1" xmlns="http://www.w3.org/2000/svg" xmlns:xlink="http://www.w3.org/1999/xlink" x="0px" y="0px"
	 viewBox="0 0 5000 1826.241" enable-background="new 0 0 5000 1826.241" xml:space="preserve">
<g id="Layer_1_1_">
	<path fill="#0B0B09" d="M4553.86,1106.487c-513.559,114.844-753.955-337.854-536.557-661.585
		c-134.579,290.954,29.973,741.659,540.557,614.188c47.507-43.203,329.845-351.253,329.845-351.253
		S4588.751,1098.684,4553.86,1106.487z M4042.914,1470.01c-12.02-33.658-20.262-58.507-19.058-95.418
		c105.433,51.092,239.987,14.831,293.573-82.499c13.837,1.524,27.927,2.493,42.227,3.074
		C4262.081,1359.4,4156.379,1417.712,4042.914,1470.01z M3876.551,1540.214c-24.666-46.882-28.515-100.802-14.469-148.492
		c14.174,3.141,28.861,4.817,43.919,4.817c19.951,0,61.234-10.561,84.099-17.121c-0.291,39.78,8.66,67.657,22.023,104.547
		C3968.078,1503.605,3922.871,1522.351,3876.551,1540.214z M3818.837,1561.866c-5.614-64.719-13.162-132.532-22.781-197.548
		c10.704,6.805,22.04,12.616,33.847,17.382c-16.204,54.565-12.38,116.102,15.024,170.523
		C3836.253,1555.466,3827.57,1558.691,3818.837,1561.866z M3682.986,1357.766c30.797,84.852,97.087,306.281,91.106,390.81
		c-12.793,0.884-30.79,1.625-53.764,1.642C3726.052,1674.911,3693.365,1432.51,3682.986,1357.766z M3664.366,1345.748
		c9.96,71.137,45.681,332.475,39.136,404.352c-20.019-0.295-45.351-1.23-74.136-3.453
		C3647.969,1653.974,3661.814,1455.736,3664.366,1345.748z M3647.472,1359.383c-2.805,95.738-15.807,293.204-34.984,385.85
		c-24.347-2.232-50.631-5.424-77.935-9.921C3571.281,1647.776,3622.173,1482.399,3647.472,1359.383z M3639.909,1307.269
		c-19.304,120.554-80.368,325.921-122.393,425.103c-33.114-6.055-67.264-14.064-100.749-24.76
		C3491.596,1647.757,3603.743,1396.011,3639.909,1307.269z M3202.67,1722.932c-60.272-39.939-86.323-117.132-54.429-192.992
		c30.925,79.56,93.33,134.301,166.775,171.972C3287.498,1707.543,3235.639,1717.912,3202.67,1722.932z M2871.478,1731.37
		c-10.974-43.692-1.364-91.207,26.368-130.292c44.169,61.616,132.585,95.939,221.095,75.189
		c9.133,19.128,21.339,36.651,37.603,52.585C3068.807,1738.537,2973.01,1739.228,2871.478,1731.37z M2562.763,1684.966
		c-14.749-72.09,32.442-148.714,114.72-172.005c27.327,59.81,91.66,104.42,172.991,103.427
		c-15.959,35.615-20.979,74.583-14.081,111.95C2748.656,1719.967,2656.985,1705.465,2562.763,1684.966z M2346.165,1628.625
		c3.141-46.993,30.807-91.173,74.448-117.854c46.242,5.105,91.74-2.904,128.17-19.816c17.618,9.272,36.912,15.875,57.175,19.362
		c-53.876,38.066-86.006,100.646-78.474,166.708C2467.833,1663.188,2407.289,1647.052,2346.165,1628.625z M2013.802,1743.127
		c38.344-74.591,84.815-173.201,107.049-241.299c17.846,4.312,32.112,7.319,42.521,9.323
		C2132.927,1579.99,2083.643,1656.425,2013.802,1743.127z M2068.18,1487.898c13.188,3.748,25.333,7.032,36.281,9.828
		c-26.688,80.983-89.245,208.311-128.128,280.376c-12.894-8.674-25.695-17.585-38.395-26.68L2068.18,1487.898z M2009.473,1470.112
		c15.075,4.834,29.148,9.146,42.26,13.028l-127.623,258.244c-15.201-11.15-30.259-22.587-45.098-34.226L2009.473,1470.112z
		 M1954.42,1451.643c13.509,4.716,26.419,9.095,38.74,13.155l-127.53,231.732c-16.625-13.306-32.996-26.874-49.107-40.643
		L1954.42,1451.643z M1900.833,1432.231c12.801,4.8,25.24,9.356,37.173,13.618l-134.318,198.946
		c-12.624-10.982-25.114-22.04-37.384-33.207L1900.833,1432.231z M1855.936,1414.991c9.71,3.815,19.218,7.504,28.491,11.058
		l-130.57,174.06c-12.127-11.201-24.078-22.469-35.818-33.771L1855.936,1414.991z M1809.752,1396.422
		c10.005,4.11,19.833,8.11,29.425,11.959l-133.24,146.226c-10.51-10.241-20.844-20.507-31.009-30.756L1809.752,1396.422z
		 M1762.43,1376.521c10.291,4.404,20.38,8.683,30.293,12.826l-129.627,122.511c-10.746-10.982-21.256-21.922-31.581-32.828
		L1762.43,1376.521z M1714.957,1355.761c10.123,4.506,20.077,8.885,29.872,13.146l-124.928,97.835
		c-10.384-11.108-20.499-22.09-30.402-32.996L1714.957,1355.761z M1669.547,1335.17c9.062,4.177,18.048,8.287,26.865,12.287
		l-118.392,73.589c-9.146-10.199-18.115-20.296-26.815-30.251L1669.547,1335.17z M1612.397,1308.339
		c12.607,6.021,25.021,11.908,37.207,17.601l-109.87,51.65c-7.984-9.23-15.808-18.359-23.353-27.286L1612.397,1308.339z
		 M1553.091,1279.461c13.315,6.611,26.377,12.986,39.279,19.26l-87.283,38.142c-8.548-10.232-16.768-20.204-24.692-29.905
		L1553.091,1279.461z M1489.608,1247.357c14.57,7.479,28.895,14.755,43.001,21.838l-63.399,23.96
		c-9.18-11.361-17.879-22.292-26.091-32.744L1489.608,1247.357z M1467.678,1236.013l-35.759,10.047
		c-13.972-18.006-26.36-34.361-36.87-48.501C1419.877,1210.958,1444.03,1223.717,1467.678,1236.013z M1163.924,958.172
		c7.698-17.576,18.89-33.653,32.937-47.532c21.854,22.073,50.236,39.271,82.078,50.084c-11.234,34.17-11.822,70.138-0.312,105.272
		C1237.26,1030.414,1198.908,994.385,1163.924,958.172z M544.026,819.551c-156.526,93.658-284.737,224.871-382.253,373.933
		c-9.575-39.464-7.883-82.078,1.398-125.88c82.718-103.865,251.119-246.436,486.11-307.696
		C611.451,779.118,576.079,800.315,544.026,819.551z M265.217,833.472c100.968-73.631,319.15-148.896,544.228-129.989
		c-6.283,1.044-12.548,2.249-18.789,3.596c-306.888,26.116-508.79,187.122-605.075,285.42
		C205.945,938.465,234.579,884.314,265.217,833.472z M383.466,653.651c125.896-40.416,337.804-19.774,507.703,27.295
		c-213.625-38.024-442.258,11.361-584.509,87.005C351.517,699.917,367.083,681.664,383.466,653.651z M339.294,266.488
		c342.335,58.396,520.066,251.169,622.18,377.167C823.307,523.224,651.925,386.666,404.756,377.233
		C389.909,339.807,368.063,302.878,339.294,266.488z M220.7,149.594c401.284,23.794,582.427,235.571,733.085,438.94
		C839.106,453.93,647.192,273.891,305.439,227.251C280.839,201.034,252.593,175.154,220.7,149.594z M991.674,580.626
		c0.935,2.089,1.979,4.093,2.939,6.165c-140.754-187.418-337.45-462.649-821.025-472.703c-14.14-10.123-28.659-20.178-43.953-30.175
		C340.97,55.212,746.939,136.128,991.674,580.626z M426.4,527.292c144.971-7.731,340.962,63.357,478.876,131.623
		c-177.496-56.35-367.608-77.909-501.438-45.983C415.578,584.972,423.183,556.296,426.4,527.292z M416.42,411.409
		C614.617,422.66,758.738,517.834,882.638,620.63c-137.316-68.241-315.983-132.482-454.411-126.991
		C428.117,462.977,423.601,436.949,416.42,411.409z M1058.256,725.968l-0.851-0.648
		C1061.526,722.92,1061.166,722.721,1058.256,725.968z M1175.487,884.44c-14.679,14.031-26.907,30.049-36.23,47.515
		c-33.038-35.952-62.826-72.022-88.908-108.051c3.658-37.456,23-72.925,57.015-96.69c14.906,11.731,30.883,22.688,47.819,32.878
		C1145.495,801.228,1150.973,846.911,1175.487,884.44z M1332.291,829.379c-1.852,38.664,9.925,77.832,35.06,110.198
		c-97.274,4.48-197.786-59.407-181.227-162.177C1234.028,801.869,1282.41,817.771,1332.291,829.379z M1669.547,845.624
		c3.647,12.498,8.666,24.33,14.881,35.38c-27.985,19.673-49.553,45.334-63.138,74.145c-42.47-18.761-74.69-55.933-82.6-103.132
		C1583.861,852.221,1625.833,849.963,1669.547,845.624z M1855.524,815.407c2.031,11.689,4.652,21.768,9.828,34.512
		c-29.265,21.492-51.12,49.932-63.87,81.455c-46.833-13.121-82.954-45.949-97.81-89.498
		C1752.905,835.796,1803.646,826.903,1855.524,815.407z M2044.878,762.94c0.117,18.616,3.346,38.08,10.199,56.282
		c-39.859,18.337-72.708,48.718-92.841,88.571c-38.719-19.99-66.678-55.243-73.833-99.941
		C1939.775,795.464,1992.023,780.432,2044.878,762.94z M2283.583,669.004c-24.1,22.862-40.258,49.602-48.955,78.617
		c-15.493-7.994-31.202-26.65-35.253-42.058C2227.359,694.025,2255.446,681.797,2283.583,669.004z M2681.77,384.316
		c-18.275,7.529-35.278,17.399-50.707,29.358c-38.411-31.522-126.317-40.618-168.173-36.592
		c-8.329-11.774-17.913-23.614-28.709-35.43C2493.109,326.33,2634.177,352.224,2681.77,384.316z M2373.897,285.538
		c88.066-15.252,276.839-6.173,379.331,64.729c-62.374,33.067-38.206,22.655-53.031,27.362
		c-44.828-40.688-216.851-72.653-278.843-49.469C2407.239,313.911,2391.415,299.678,2373.897,285.538z M2842.591,305.632
		c-24.44,11.437-48.602,23.522-72.604,35.986c-111.655-83.56-326.502-90.079-413.591-69.715
		c-13.82-10.468-28.507-20.877-44.104-31.169C2533.817,165.2,2775.925,257.072,2842.591,305.632z M2935.213,265.25
		c-25.333,10.283-50.396,21.206-75.299,32.558c-52.215-42.942-313.945-161.874-565.603-68.612
		c-9.466-5.954-19.227-11.875-29.274-17.728C2549.574,89.969,2841.539,195.35,2935.213,265.25z M2993.441,242.781
		c-18.721,6.914-37.367,14.005-55.861,21.492l8.834-11.715c-96.302-72.688-403.619-184.107-699.466-51.44
		c-8.371-4.699-16.928-9.348-25.661-13.98C2658.105,2.037,2927.533,188.006,2993.441,242.781z M3176.251,185.361
		c-49.604,12.953-98.542,27.775-146.791,44.492c0.736-0.695-281.588-277.799-774.984-92.252
		C2414.425,18.335,2829.867-36.21,3176.251,185.361z M3357.714,315.056c-71.483,6.358-132.642,44.037-165.445,97.187
		c-41.182-54.219-48.45-123.58-17.315-175.163c50.741-13.694,100.766-24.928,149.865-34.015
		C3321.822,240.309,3329.804,273.707,3357.714,315.056z M3544.584,175.272c-17.466,51.636-9.329,104.01,17.854,146.007
		c-25.299,3.386-49.132,10.746-70.7,21.29c-27.876-15.328-59.146-24.692-91.78-27.472c-17.13-19.749-35.494-50.317-39.927-75.012
		c-2.568-14.307-2.746-28.752-0.64-43.119C3422.982,186.406,3484.865,179.407,3544.584,175.272z M3709.388,170.615
		c-7.243,26.84-5.466,54.362,1.954,77.935c-43.599,13.02-80.907,38.159-106.703,70.869l-1.415-0.034
		c-34.849-39.818-44.859-94.416-21.593-146.369C3625.567,170.783,3668.198,170.093,3709.388,170.615z M3808.832,240.541
		c-21.382-2.613-42.104-2.584-64.376,0.699c-6.333-18.545-9.491-44.315-0.017-69.892c46.496,1.39,90.963,4.303,133.072,8.279
		C3849.644,194.996,3826.088,215.873,3808.832,240.541z M4076.112,602.481c0.817-8.186,1.448-15.639,3.664-22.065
		c3.149-11.31,2.472-10.936,11.664-29.286c0,0-1.053,5.23-3.158,14.266c-1.432,4.497-1.324,10.135-2.223,16.288
		c-0.896,6.131-0.207,13.244-0.328,20.873c-0.061,3.826,0.59,7.759,1.347,11.786c1.558,8.286-0.34,4.935,6.021,25.105
		c1.353,4.29,3.712,8.33,5.398,12.654c2.25,5.77,11.318,19.943,15.184,24.12c3.288,3.552,5.904,7.794,9.702,10.936l11.083,9.757
		c8.211,5.424,16.169,11.352,25.383,14.856c8.641,4.674,18.258,6.573,27.16,9.622c22.944,3.81,23.444,4.068,27.076,3.971
		c31.48,1.209,11.847,0.95,46.118-0.808c6.316-0.977,30.823-4.577,30.823-4.577c-5.038,2.147-22.873,8.863-29.585,10.902
		c-36.282,8.229-28,5.133-47.751,7.045c-6.226,0.603-23.462-1.227-29.628-1.996c-3.106-0.762-20.705-4.915-23.21-5.979
		c-18.242-7.958-15.451-5.843-36.66-19.698c-23.723-21.604-11.213-10.083-23.345-24.078c-5.333-7.192-1.313-0.09-8.944-13.757
		c-2.67-4.716-5.291-9.334-6.956-14.363c-1.645-4.968-4.039-9.606-5.07-14.536c-4.399-21.044-3.452-17.792-3.983-28.192
		C4075.665,610.864,4075.422,606.599,4076.112,602.481z M3878.429,463.413c-39.54-30.722-67.407-81.606-67.407-124.86
		c0-73.867,60.99-135.682,142.007-150.361c45.048,5.954,86.693,12.986,124.532,20.423
		C3984.753,282.919,3919.35,370.589,3878.429,463.413z M3706.542,952.285c0-67.938,50.792-126.578,125.105-146.555
		c15.496,106.316,58.261,206.341,123.841,288.023C3837.611,1136.757,3706.542,1062.119,3706.542,952.285z M3979.658,1122.033
		c76.402,83.114,178.793,143.051,301.615,164.763c-30.924,46.269-88.983,77.227-155.246,77.227
		C3980.418,1364.023,3897.063,1222.413,3979.658,1122.033z M3685.041,1226.084c10.131-6.03,27.885-14.208,39.557-14.208
		c6.223,0,7.37,1.827,8.539,6.013c24.599,88.059,45.284,254.807,54.43,379.146c-29.889-135.758-85.565-302.365-118.182-352.508
		C3677.1,1235.946,3682.346,1229.52,3685.041,1226.084z M3595.527,1325.561c-65.024,96.134-200.396,271.989-301.801,325.668
		c-25.788-16.692-49.099-36.222-68.772-58.952C3325.955,1546.992,3495.275,1435.883,3595.527,1325.561z M3548.222,1350.304
		c-104.581,100.943-252.239,192.596-334.25,228.439c-15.134-19.968-27.699-42.109-36.651-66.97
		C3343.802,1473.716,3465.537,1408.877,3548.222,1350.304z M3216.187,1447.659c18.637-7.125,36.601-16.86,53.217-29.274
		c6.771,8.582,14.393,16.902,22.798,24.937c-33.872,12.018-70.103,23.042-108.994,32.449
		C3192.935,1465.311,3204.035,1455.938,3216.187,1447.659z M2318.676,1420.188c-38.031-61.398-28.725-133.902,31.801-181.539
		c29.459,28.583,69.049,47.751,112.901,52.796c-19.97,65.535,0.123,132.733,51.591,176.713
		C2445.962,1490.821,2354.281,1477.668,2318.676,1420.188z M1515.194,892.019c-27.379,18.873-48.644,43.582-62.582,71.307
		c-52.93-22.299-87.116-71.022-86.769-126.924c43.844,8.177,90.18,13.205,138.748,14.94
		C1506.642,867.137,1509.795,878.662,1515.194,892.019z M1612.481,1079.554c-25.055,26.2-41.578,58.236-48.046,91.881
		c-113.669-38.893-130.838-178.621-33.367-249.375c18.856,28.263,46.201,50.876,78.852,64.814
		C1602.278,1016.868,1602.582,1048.09,1612.481,1079.554z M2205.581,928.553c-67.496,56.536-91.101,138.38-73.1,195.771
		c-69.715,2.257-132.999-39.373-150.623-102.972c-19.433-70.129,20.901-141.567,88.529-172.089
		C2098.903,892.996,2148.877,922.068,2205.581,928.553z M2498.792,452.633c22.149,0.792,45.502,4.362,61.689,12.203
		c-19.757,12.001-39.523,23.682-59.322,35.076C2503.563,482.62,2502.268,467.922,2498.792,452.633z M2576.81,454.89
		c-23.185-15.479-59.87-18.814-82.904-19.202c-4.826-14.014-11.647-28.221-20.397-42.53c44.222-2.181,113.752,8.927,144.39,31.64
		C2600.298,440.911,2615.368,431.164,2576.81,454.89z M3637.669,565.711c-30.31,8.514-57.781,23.168-80.747,42.395
		c-33.706-11.1-69.994-14.454-105.651-9.794c-84.985-97.748-9.227-237.435,132.137-245.013
		C3547.224,428.672,3571.719,513.433,3637.669,565.711z M3520.296,754.653c0-78.28,60.384-143.826,140.769-159.895
		c-3.824,14.157-5.896,28.945-5.896,44.189c0,74.995,39.625,132.331,107.908,159.962c-44.745,27.581-76.031,69.589-86.373,117.98
		C3588.41,906.648,3520.296,836.849,3520.296,754.653z M3693.396,1175.174c-99.065-2.358-173.1-63.702-173.1-144.744
		c0-61.31,13.011-107.107,36.609-129.534c31.539,26.554,71.652,44.534,116.034,49.646c-1.664,34.419,12.041,78.602,42.883,114.552
		C3705.346,1093.771,3692.731,1145.687,3693.396,1175.174z M3506.905,1109.216c27.994,50.362,82.836,86.339,151.061,96.74
		c-10.274,12.691-58.127,68.536-148.214,128.953C3432.567,1274.714,3430.743,1170.754,3506.905,1109.216z M2573.543,1131.449
		c-7.852-73.7,37.712-136.609,111.091-154.286c32.339,31.295,75.088,53.68,119.142,63.946
		c-70.909,55.848-119.985,136.06-79.501,217.078C2648.151,1250.246,2580.36,1195.436,2573.543,1131.449z M2332.446,1131.449
		c-7.939-74.677,48.533-145.591,132.903-158.926c18.923,21.521,56.188,42.399,100.892,48.164
		c-31.99,49.659-35.4,113.258-13.13,160.939c-33.392,18.764-59.474,45.957-76.191,77.32
		C2401.875,1254.718,2339.848,1201.08,2332.446,1131.449z M2663.975,740.639c-44.132,60.87-50.963,142.607-3.655,208.471
		c-26.183,8.7-49.065,22.242-67.618,39.641c-41.351-0.16-77.78-13.815-102.695-39.102
		c-66.624-67.619-44.795-231.728,116.253-250.083C2622.523,716.157,2641.969,730.087,2663.975,740.639z M2899.733,820.317
		c-49.562,48.046-79.695,120.768-60.4,192.596c-83.922-7.984-175.09-72.115-177.758-157.276
		c-2.614-83.431,64.395-157.081,156.703-167.954C2822.692,744.328,2855.207,791.37,2899.733,820.317z M2931.331,837.017
		c49.196,20.621,107.14,22.428,161.958,1.128c12.565,15.235,27.682,28.465,44.652,39.338
		c-70.132,60.606-89.904,154.752-52.535,234.082c-73.505,30.655-150.532,5.024-195.704-66.885
		C2842.96,970.27,2875.074,885.56,2931.331,837.017z M3125.595,1115.094c-45.58-72.539-28.142-166.015,44.93-220.573
		c45.046,18.868,96.976,23.592,149.064,9.458c2.4,2.51,4.885,4.96,7.428,7.377c-31.657,33.485-49.478,76.141-49.478,120.102
		c0,60.906,18.755,107.798,54.977,139.464C3253.302,1199.724,3164.819,1177.516,3125.595,1115.094z M3422.789,1177.954
		c-73.976-17.391-111.563-66.498-111.563-146.496c0-36.744,14.839-71.357,42.125-99.039c37.883,25.585,85.621,40.302,137.712,38.31
		c-3.326,20.608-4.455,41.275-4.455,59.702c0,16.279,2.366,31.943,6.788,46.74
		C3457.756,1103.287,3433.198,1138.565,3422.789,1177.954z M3529.863,635.469c-58.114,71.036-58.278,170.022,3.175,241.72
		c-16.229,15.732-27.118,36.668-34.175,59.499c-107.291,8.458-195.375-64.827-195.375-153.031
		C3303.487,682.766,3415.503,608.572,3529.863,635.469z M3188.109,583.515c-7.834-27.224,14.218,57.575,118.628,94.736
		c-44.669,57.674-49.842,133.812-9.963,196.597c-85.716,16.81-173.079-24.402-200.311-97.237
		c-25.345-67.79,1.146-142.183,58.902-187.198C3166.289,588.93,3177.22,586.682,3188.109,583.515z M2955.4,504.848
		c32.929,49.318,88.571,80.747,149.957,86.508c-57.412,64.971-66.928,150.858-31.337,217.895
		c-130.627,44.958-269.081-62.874-207.25-204.597C2884.809,563.306,2916.778,527.62,2955.4,504.848z M2603.313,497.9
		c49.741-30.678,68.801-44.185,121.871-74.566c-11.403,76.831,25.871,158.665,98.231,204.825c-2.105,8.624-3.672,17.222-4.59,25.737
		c-50.253,4.935-96.572,25.872-131.808,60.156C2597.749,676.687,2561.31,579.54,2603.313,497.9z M2290.32,919.693
		c27.126,21.829,61.209,37.687,98.542,44.997c-88.7,52.395-117.345,159.6-64.232,242.36
		c-126.788,13.768-210.697-96.695-135.927-209.81C2213.575,959.614,2250.494,931.551,2290.32,919.693z M1863.676,1353.176
		c-57.655-9.062-104.279-47.829-119.041-101.069c-17.105-61.691,13.525-128.642,72.031-163.449
		c16.06,23.901,38.277,43.734,64.738,57.672c-22.975,51.466-20.889,112.436,10.165,156.829
		C1879.542,1318.571,1870.144,1335.465,1863.676,1353.176z M2075.112,1328.062c-70.439,12.094-150.194-1.61-170.801-75.955
		c-17.335-62.541,14.14-130.158,74.01-164.636c28.575,36.786,72.014,61.579,120.506,68.603
		c-33.817,50.516-39.688,112.389-14.906,166.363C2080.914,1324.247,2078,1326.125,2075.112,1328.062z M2269.173,1391.242
		c-74.044,7.403-143.281-35.269-161.849-102.282c-12.626-45.569-0.421-93.944,32.685-131.252c2.072-0.126,4.152-0.244,6.232-0.463
		c29.004,51.911,86.23,83.4,153.124,84.613C2263.801,1285.768,2254.173,1339.496,2269.173,1391.242z M2760.067,1253.336
		c-48.108-76.881,16.451-156.572,92.673-205.692c26.701,51.997,74.7,93.475,133.83,106.088
		c-33.67,53.284-42.344,116.152-26.849,171.601c-6.215,4.624-12.135,9.542-17.829,14.654
		C2869.734,1353.791,2796.783,1312.012,2760.067,1253.336z M3205.332,1415.716l-0.623-1.002c-1.431,0.893-2.745,1.945-4.144,2.863
		c-54.876,19.673-115.9,12.01-159.945-25.181c-66.684-56.307-72.772-159.693-15.614-234.637
		c25.678-0.093,51.878-5.643,77.412-16.894c33.4,46.816,90.121,73.378,151.178,75.88c-33.215,55.592-33.687,117.946-2.998,173.412
		C3236.458,1400.944,3221.223,1409.517,3205.332,1415.716z M3294.913,1396.11c0.483-0.483,0.758,0.059-2.383-3.023
		c-41.603-56.105-41.157-122.25,3.63-178.532c23.707-3.343,47.355-10.359,69.976-21.231c15.218,7.74,32.323,13.753,51.305,17.98
		c-3.203,55.618,21.457,106.683,62.582,142.698c-42.665,26.25-93.178,52.602-152.147,75.998
		C3318.249,1422.397,3305.54,1409.861,3294.913,1396.11z M3827.756,772.06c-6.619,1.625-13.062,3.495-19.362,5.617
		c-75.981-16.431-119.538-66.734-119.538-138.731c0-16.717,3.36-32.819,9.264-47.97l1.137-0.05v-2.611
		c23.059-55.668,82.634-97.17,153.578-102.341c4.017,3.327,8.144,6.485,12.388,9.466
		C3831.006,586.235,3819.477,680.904,3827.756,772.06z M3790.911,272.737c-27.089,63.398-11.806,128.788,32.02,182.979
		c-63.491,11.807-115.925,48.13-144.449,97.321c-48.703-28.423-78.086-75.374-78.086-126.983
		C3600.395,340.956,3683.33,267.1,3790.911,272.737z M3457.604,363.329c-81.117,60.372-99.552,163.396-42.993,242.781
		c-31.287,9.306-59.365,24.827-82.263,44.938c-75.56-20.92-132.094-84.512-132.094-149.553
		C3200.253,387.974,3339.444,313.679,3457.604,363.329z M3176.184,445.71c-10.592,29.862-12.93,61.846-4.421,94.618
		c-10.266,5.188-20.069,11.032-29.282,17.585c-76.486,6.889-149.119-33.596-174.717-102.08
		c-20.31-54.338-6.957-116.472,32.82-162.514c44.264-16.7,88.167-31.371,131.606-44.206
		C3109.501,312.403,3125.51,388.35,3176.184,445.71z M2946.052,314.871c-24.942,49.857-29.138,108.166-6.628,160.341
		c-46.259,26.956-84.535,69.876-105.061,119.698c-64.738-45.528-92.968-125.492-69.067-193.885
		C2825.849,368.205,2886.199,339.605,2946.052,314.871z M2414.103,605.386c47.751-24.852,95.494-51.406,143.085-79.619
		c-11.31,47.82-3.4,99.661,24.844,143.548c-45.3,9.011-83.535,30.04-111.369,59.592
		C2431.418,697.427,2410.658,651.613,2414.103,605.386z M2384.197,652.834c8.893,39.212,31.615,75.467,65.74,102.678
		c-36.263,56.862-36.168,129.419-10.873,179.863c-89.792,1.609-169.49-53.724-177.151-125.585
		C2254.334,738.692,2305.371,670.37,2384.197,652.834z M2228.193,781.341c-3.437,40.699,6.776,77.643,35.119,111.832
		c-97.722,18.214-192.178-44.43-184.343-141.788c29.543-10.317,59.247-21.332,89.094-33.156
		C2176.611,744.575,2202.237,772.421,2228.193,781.341z M1949.94,939.35c-11.171,39.242-8.416,81.406,10.435,119.639
		c-25.526,14.948-46.69,34.916-62.481,57.95c-94.421-48.985-100.957-170.917-16.54-236.945
		C1898.104,904.989,1921.533,925.386,1949.94,939.35z M1703.747,908.56c22.436,25.939,52.829,45.132,88.1,55.103
		c-6.279,31.916-3.665,64.368,8.978,95.258c-38.007,22.208-66.506,55.668-81.809,93.692
		C1618.39,1105.012,1610.25,974.422,1703.747,908.56z M1311.615,969.306c28.474,5.357,56.371,5.969,86.331,0.825
		c12.708,9.879,26.958,18.14,42.37,24.549c-6.274,22.056-8.119,45.174-5.12,68.216c-23.328,20.515-41.115,45.949-51.819,73.791
		C1318.841,1105.453,1288.647,1036.013,1311.615,969.306z M1409.223,1166.854c5.752-24.179,18.006-46.976,35.439-66.119
		c19.294,50.421,62.599,89.186,116.801,105.137c0.224,16.951,3.165,33.463,6.241,43.027
		C1517.821,1224.197,1465.026,1196.961,1409.223,1166.854z M1614.157,1271.578c-30.997-51.125-22.7-112.881,13.365-158.093
		c18.418,31.354,46.959,56.484,81.918,71.804c-11.108,57.626,7.919,113.108,48.846,152.332
		C1713.685,1318.276,1665.597,1296.313,1614.157,1271.578z M1888.495,1390.981c3.546-22.107,12.498-43.574,26.259-62.624
		c32.263,27.048,76.923,38.32,118.721,37.375c-16.001,19.353-27.842,41.418-34.773,64.822
		C1966.093,1419.716,1929.382,1406.688,1888.495,1390.981z M2030.746,1440.93c9.096-31.43,29.063-60.114,57.318-80.924
		c1.038-0.187,0.864-0.029,0.775-0.531c3.882-2.821,7.916-5.491,12.094-8.009c20.515,27.952,49.478,49.267,82.769,61.765
		c-14.393,18.738-24.785,39.464-30.908,61.091C2126.408,1468.486,2085.698,1458.237,2030.746,1440.93z M2183.011,1548.56
		c13.022-26.594,18.299-40.528,27.8-64.384c-22.186-2.883-21.369-2.748-24.76-3.301c6.333-20.861,17.635-40.669,33.51-57.95
		c20.269,3.407,40.521,3.957,62.481,0.707c18.245,35.867,46.632,62.528,94.399,77.867c-35.422,30.706-58.126,72.486-63.222,117.011
		c-40.45-12.683-81.126-26.394-121.921-41.039C2186.699,1562.948,2184.642,1556.122,2183.011,1548.56z M2665.904,1477.32
		c-77.623,12.363-152.267-30.817-171.719-100.766c-17.546-63.097,14.494-131.892,76.36-166.11
		c38.942,51.506,108.202,82.567,173.504,82.567C2682.25,1333.755,2651.048,1405.753,2665.904,1477.32z M2879.849,1569.252
		c-3.125,3.765-6.106,7.63-8.919,11.563c-76.991,11.445-150.636-31.611-169.942-101.027
		c-17.631-63.395,11.016-128.928,68.671-162.876c37.586,34.756,87.342,57.916,139.514,59.281
		C2867.244,1432.943,2852.195,1505.154,2879.849,1569.252z M3107.202,1644.357c-124.522,26.449-240.183-68.936-199.426-193.733
		c9.605-29.41,27.522-57.015,50.859-79.829c5.794-1.482,11.563-3.251,17.306-5.348c33.745,61.869,99.207,99.64,175.13,96.05
		C3105.287,1516.065,3091.234,1584.614,3107.202,1644.357z M3396.766,1700.875c-30.167-10.696-59.398-23.775-86.508-39.532
		c102.88-59.583,233.264-227.951,301.329-329.247C3582.479,1400.304,3462.639,1667.3,3396.766,1700.875z M3788.376,1315.96
		c-6.897-40.382-14.542-77.59-22.781-107.116c-5.203-18.646-19.185-29.56-38.428-30.478c-0.774-25.876,8.316-63.999,15.496-87.375
		c49.355,39.508,118.531,57.752,188.335,44.281c-34.948,70.534-17.838,155.937,49.856,211.772
		c-23.606,6.822-60.822,15.808-74.852,15.808C3860.996,1362.853,3819.839,1345.116,3788.376,1315.96z M4141.145,510.924
		c17.569-17.389,40.77-26.387,62.093-26.979c3.345-0.093,5.121-0.177,5.121-0.177c-14.92,6.694-2.275,0.408-17.433,8.144
		c-4.471,2.282-13.675,8.742-17.492,11.942c-47.009,39.418-40.785,108.943-0.076,133.964c9.324,5.731,20.417,8.828,31.977,9.904
		c1.246,0.116,3.335,0.379,3.891,0.362c15.24,0.188,40.246,1.642,58.514-14.309c23.113-20.181,24.77-59.788,27.648-90.163
		c8.209,27.457,8.354,35.73,8.818,55.878c-0.861,8.054-0.193,15.064-7.125,34.024c-5.172,10.645-5.913,10.872-10.957,17.728
		c-18.717,22.635-47.331,28.342-76.537,29.299C4117.899,683.231,4079.176,572.259,4141.145,510.924z M4135.393,180.342
		c1.798-2.691-392.554-129.342-914.742-5.963c-427.397-293.05-967.385-164.795-1048.731,6.914l-7.057,14.898l14.747,7.377
		c166.952,83.476,274.575,182.229,287.871,264.189c3.403,20.978,0.059,39.927-9.727,56.661
		c-696.881,385.678-1285.893,341.065-1420.559,34.293C883.556,279.407,673.856,148.583,525.835,89.724
		C333.778,13.355,157.031,18.005,55.634,47.826L0,64.19l49.873,29.602c187.788,111.436,296.138,228.32,322.038,347.413
		c17.065,78.468-3.039,147.233-49.065,213.297c-107.891,155.33-288.469,415.317-189.16,607.315l20.886,40.407l23.261-39.085
		c57.082-95.898,183.265-275.037,387.079-397.202c118.076-70.534,252.989-149.406,386.591-102.4
		c79.223,140.331,214.636,283.905,390.524,418.5c68.073,95.098,323.082,434.224,633.819,636.16l12.38,8.043
		c55.764-65.214,110.991-133.499,158.252-211.284c304.732,112.329,605.564,172.3,860.632,172.3
		c142.283,0,235.183-16.697,389.724-51.187c175.316,58.896,383.015,49.901,408.891,42.521c11.906-3.395,27.665-7.942,17.121-164.518
		c237.493-84.908,447.783-191.99,628.707-320.489l-0.859-1.213l1.895-0.168C4814.031,1035.483,4935.304,749.507,5000,664.33
		C4789.23,447.555,4496.196,262.024,4135.393,180.342z"/>
	<path fill="#FFFFFE" d="M4557.86,1059.089c-510.584,127.471-675.136-323.234-540.557-614.188
		c-217.398,323.731,22.997,776.429,536.557,661.585c34.892-7.803,333.845-398.651,333.845-398.651
		S4605.367,1015.886,4557.86,1059.089z"/>
	<path fill="#FFFFFE" d="M4209.588,680.542c29.365-0.963,57.883-6.741,76.537-29.299c4.905-6.688,5.744-6.999,10.957-17.728
		c6.721-18.383,6.16-25.011,7.125-34.024c-0.45-19.521-0.396-27.712-8.818-55.878c-0.926,9.794-1.407,22.925-4.455,40.896
		c-0.691,4.076-1.861,8.279-2.83,12.692c-2.201,5.78-5.727,23.796-20.364,36.576c-17.51,15.289-40.558,14.53-58.514,14.309
		c-0.607,0.018-20.449-0.796-35.868-10.266c-40.999-25.181-46.611-94.892,0.076-133.964c3.856-3.227,13.015-9.657,17.492-11.942
		c14.499-7.399,2.42-1.448,17.433-8.144c-13.568,0.641-12.019-0.059-30.006,4.497
		C4074.714,523.765,4096.18,683.868,4209.588,680.542z"/>
	<path fill="#FFFFFE" d="M4079.876,643.516c1.029,4.922,3.421,9.56,5.07,14.536c2.036,6.142,5.313,11.389,10.948,21.513
		c1.289,2.442,3.31,4.375,4.952,6.607c12.055,13.905-0.36,2.49,23.345,24.078c9.424,6.156,18.713,12.591,29.13,16.414
		c12.226,5.333,7.324,3.331,15.344,5.462c13.697,3.638,16.239,4.272,30.546,5.318c4.951,0.362,9.761,0.937,14.477,0.48
		c9.342-0.904,18.238-0.661,26.2-2.404c26.838-5.876,17.993-3.146,37.502-10.27c8.774-3.204,13.635-5.272,13.635-5.272
		c-8.057,0.962-19.918,2.891-30.823,4.577c-34.541,1.818-15.252,1.994-46.118,0.808c-3.989,0.107-4.7-0.298-27.076-3.971
		c-8.902-3.065-18.52-4.939-27.16-9.622c-9.213-3.503-17.172-9.432-25.383-14.856l-11.083-9.757
		c-3.798-3.141-6.41-7.379-9.702-10.936c-3.948-4.265-12.984-18.473-15.184-24.12c-1.688-4.331-4.048-8.372-5.398-12.654
		c-6.323-20.045-4.501-17.032-6.021-25.105c-0.758-4.027-1.408-7.968-1.347-11.786c0.122-7.621-0.568-14.743,0.328-20.873
		c0.898-6.144,0.792-11.807,2.223-16.288c2.105-9.053,3.158-14.266,3.158-14.266c-9.196,18.391-8.49,17.887-11.664,29.286
		c-2.215,6.434-2.846,13.871-3.68,22.073c-0.674,4.101-0.431,8.375-0.202,12.835
		C4076.421,625.644,4075.474,622.455,4079.876,643.516z"/>
</g>
</svg>
