<?xml version="1.0" standalone="no"?>
<!DOCTYPE svg PUBLIC "-//W3C//DTD SVG 20010904//EN"
 "http://www.w3.org/TR/2001/REC-SVG-20010904/DTD/svg10.dtd">
<svg version="1.0" xmlns="http://www.w3.org/2000/svg"
 width="512.000000pt" height="512.000000pt" viewBox="0 0 512.000000 512.000000"
 preserveAspectRatio="xMidYMid meet">
<metadata>
Created by potrace 1.16, written by Peter Selinger 2001-2019
</metadata>
<g transform="translate(0.000000,512.000000) scale(0.100000,-0.100000)"
fill="#000000" stroke="none">
<path d="M2955 4430 c-112 -36 -147 -36 -260 -5 -115 32 -190 32 -299 0 l-87
-25 -97 19 c-161 32 -222 36 -303 16 -45 -11 -83 -28 -101 -44 l-29 -26 7
-198 c8 -234 13 -247 104 -284 54 -21 54 -22 25 -28 -123 -28 -164 -47 -212
-97 -37 -38 -63 -103 -63 -157 0 -45 -4 -50 -62 -89 -26 -18 -52 -40 -57 -50
-8 -15 -12 -13 -33 13 -53 68 -70 73 -126 37 -20 -13 -23 -22 -20 -63 3 -42 0
-49 -19 -54 -12 -3 -35 -17 -52 -31 -74 -62 0 -145 89 -99 l28 15 47 -128 c25
-70 54 -133 63 -139 8 -7 35 -13 59 -13 l43 0 0 -53 c0 -68 -21 -371 -26 -376
-2 -2 -15 4 -29 13 -39 26 -87 18 -99 -17 -14 -39 17 -78 77 -96 52 -16 54
-24 41 -124 l-7 -47 -29 25 c-29 24 -85 45 -124 45 -17 0 -30 -19 -67 -98 -69
-150 -91 -231 -92 -337 0 -116 28 -195 96 -269 l48 -53 -9 -64 c-16 -110 -15
-119 20 -119 35 0 104 63 131 119 16 31 16 9 12 -340 l-5 -374 24 -45 c12 -24
37 -52 53 -62 33 -19 257 -59 471 -84 196 -24 726 -24 914 0 201 24 471 75
505 95 61 35 65 55 72 320 3 133 10 241 15 241 4 0 8 -13 8 -30 0 -41 31 -70
74 -70 79 0 89 111 14 151 -16 9 -26 7 -49 -10 -17 -13 -29 -17 -29 -10 0 7
-6 17 -14 23 -11 9 -16 56 -21 211 -6 165 -5 198 6 188 13 -13 49 -18 49 -7 0
21 -24 45 -43 42 -22 -3 -22 -1 -33 222 -6 124 -15 281 -19 349 l-8 124 34
-20 c19 -11 62 -37 97 -57 34 -21 68 -36 75 -33 7 2 20 25 29 51 l17 46 -111
138 c-61 75 -115 147 -121 159 -9 21 -11 21 -23 5 -18 -25 -20 -16 -39 223
-29 369 -55 609 -71 657 -21 66 -82 130 -159 169 -81 41 -99 59 -59 59 36 0
111 34 142 63 13 12 33 40 45 62 41 77 22 331 -28 381 -12 12 -59 34 -104 48
-108 34 -179 33 -296 -4z m274 -45 c44 -14 83 -31 87 -37 13 -20 34 -152 34
-208 -1 -111 -58 -176 -180 -204 -86 -21 -84 -21 -57 22 54 85 61 97 63 107 1
6 9 34 18 64 14 48 24 212 12 200 -3 -2 -11 -36 -19 -74 -31 -146 -92 -251
-169 -291 -33 -17 -33 -17 9 45 13 19 23 43 23 55 0 16 -6 12 -26 -19 -33 -50
-83 -103 -109 -117 -19 -11 -19 -10 -2 15 24 38 21 54 -5 30 -39 -35 -52 -39
-46 -15 7 26 2 27 -32 7 -14 -8 -28 -14 -32 -15 -4 0 11 37 32 83 38 82 107
288 90 271 -5 -5 -31 -65 -58 -134 -74 -190 -116 -258 -58 -96 16 46 27 103
31 172 7 100 8 102 34 108 14 3 62 17 106 30 103 32 155 32 254 1z m-1033 -16
l112 -22 93 27 c116 32 157 33 278 1 53 -13 103 -25 112 -27 15 -3 15 -8 4
-48 -7 -25 -29 -110 -50 -190 -21 -80 -44 -156 -52 -170 -12 -23 -13 -21 -8
25 l6 50 -28 -50 c-22 -38 -34 -51 -55 -53 -27 -3 -28 -1 -28 39 l0 42 -30
-41 c-17 -23 -34 -42 -39 -42 -12 0 -38 32 -46 59 -7 24 -8 24 -27 -12 -29
-57 -42 -50 -64 37 l-13 51 5 -62 c4 -40 2 -63 -4 -63 -9 0 -26 63 -47 170 -8
43 -35 122 -47 134 -4 6 -9 -7 -9 -30 -1 -24 -6 -4 -13 51 l-12 90 -8 -90 c-7
-80 -5 -96 13 -138 30 -70 26 -71 -14 -2 -19 33 -35 54 -35 48 0 -19 48 -143
70 -181 l19 -32 -32 16 c-17 9 -45 26 -62 38 -66 49 -70 46 -20 -14 52 -63 33
-62 -31 1 l-56 54 32 -64 c17 -34 29 -65 26 -68 -8 -8 -75 101 -111 181 -42
92 -54 139 -16 61 37 -76 39 -65 4 21 -23 58 -28 64 -34 45 -12 -30 15 -152
51 -231 l30 -65 -38 42 c-25 27 -55 81 -86 155 -50 121 -85 190 -86 172 -1
-30 48 -160 96 -256 30 -60 50 -108 45 -108 -22 0 -98 33 -117 51 -19 18 -22
34 -28 177 -3 86 -9 167 -12 179 -7 25 10 36 88 58 62 17 116 14 274 -16z
m647 -578 c34 -26 80 -59 102 -73 41 -25 125 -61 125 -54 0 3 -27 21 -60 41
-52 32 -130 107 -130 125 0 4 28 3 62 -3 46 -7 71 -17 95 -37 37 -33 122 -84
128 -78 3 2 -18 21 -46 42 -28 21 -49 39 -47 41 8 8 130 -24 170 -45 57 -29
88 -58 105 -98 15 -36 53 -430 78 -802 8 -129 17 -255 20 -280 28 -252 55
-846 61 -1333 5 -374 4 -410 -11 -427 -21 -24 -34 -26 -235 -47 -138 -14 -254
-17 -715 -15 -302 1 -626 7 -719 14 -151 10 -172 14 -195 34 l-26 22 0 174 c1
552 81 2570 106 2663 14 52 67 101 132 120 38 11 266 45 304 45 2 0 3 -6 3
-14 0 -20 -86 -59 -199 -91 -167 -47 -178 -60 -192 -224 -22 -273 -47 -1742
-31 -1851 7 -48 10 35 11 315 0 209 5 497 11 640 5 143 14 422 21 620 12 382
16 410 62 440 22 14 247 76 247 68 0 -2 -14 -29 -32 -61 l-32 -57 66 65 c37
36 81 74 100 84 l32 20 -38 -47 c-21 -26 -35 -47 -32 -47 4 0 38 27 77 60 38
33 72 60 75 60 13 0 -77 -138 -128 -196 -17 -19 -28 -37 -26 -40 8 -7 146 144
186 204 25 37 41 52 57 52 38 0 46 -20 35 -86 -15 -91 -12 -95 20 -20 37 87
64 116 105 116 42 0 57 -19 104 -127 46 -104 109 -233 116 -233 2 0 -8 30 -22
68 -63 165 -90 282 -65 282 5 0 17 -12 29 -27 36 -50 124 -143 157 -165 l31
-23 -35 43 c-49 60 -120 162 -120 172 0 5 8 11 18 13 9 3 18 5 20 6 1 0 30
-21 65 -48z m-1218 -357 c-9 -48 -49 -65 -79 -33 -14 14 -17 23 -9 26 6 2 29
17 50 32 42 31 48 27 38 -25z m-210 -41 c-20 -48 -21 -49 -29 -17 -5 19 -2 30
11 40 29 22 34 16 18 -23z m31 -35 c-1 -14 4 -22 12 -20 8 1 11 -2 7 -8 -3 -5
-1 -10 5 -10 6 0 8 -4 5 -10 -3 -5 -2 -10 3 -10 5 0 17 -19 28 -42 10 -22 31
-59 47 -81 16 -21 24 -36 19 -33 -13 8 -64 -11 -78 -29 -8 -11 -20 12 -51 97
-39 107 -40 112 -24 140 19 34 28 36 27 6z m2204 -759 c45 -54 79 -99 77 -99
-3 0 -45 40 -93 88 -56 55 -88 95 -86 105 5 24 13 17 102 -94z m-2254 -334 c3
-8 -5 -47 -19 -87 -47 -137 -59 -197 -57 -302 2 -130 3 -128 -22 -81 -47 89
-31 250 42 413 33 72 46 85 56 57z m79 -25 c10 -16 -39 -266 -55 -284 -5 -5
-6 -15 -3 -23 3 -7 2 -13 -3 -12 -22 6 -63 -25 -67 -50 -3 -19 -4 -16 -6 12
-1 50 24 170 60 284 26 80 32 90 49 86 11 -3 22 -9 25 -13z m19 -297 c-60
-222 -75 -268 -69 -223 9 71 90 367 93 343 2 -12 -9 -66 -24 -120z m16 -68
c-7 -9 -15 -13 -19 -10 -3 3 1 10 9 15 21 14 24 12 10 -5z m-163 -67 c-3 -7
-5 -2 -5 12 0 14 2 19 5 13 2 -7 2 -19 0 -25z m136 -68 c3 -12 1 -18 -5 -14
-6 4 -8 -2 -3 -17 5 -16 4 -21 -3 -14 -15 15 -27 59 -13 51 6 -4 11 -2 11 3 0
18 7 12 13 -9z"/>
<path d="M3264 3570 c12 -51 89 -921 123 -1370 17 -235 24 -883 11 -1075 -3
-55 -4 -84 -2 -65 2 19 12 65 20 103 24 100 14 874 -14 1212 -12 132 -28 332
-36 445 -31 401 -71 718 -97 758 -8 14 -9 12 -5 -8z"/>
<path d="M2515 3355 c-21 -61 -66 -145 -99 -184 -20 -23 -39 -53 -42 -66 l-6
-23 -57 29 c-34 17 -87 33 -127 38 -38 5 -115 18 -171 27 -56 10 -105 15 -109
12 -10 -10 125 -154 228 -244 l90 -79 -79 -11 c-87 -13 -174 -36 -212 -58
l-25 -14 50 -31 c27 -17 77 -45 112 -63 l63 -31 -28 -20 c-56 -39 -121 -152
-100 -173 4 -4 32 3 64 14 32 11 88 23 126 25 64 4 67 4 67 -18 0 -33 34 -57
89 -63 45 -4 55 -1 99 32 27 20 54 36 59 36 5 0 20 -11 32 -24 25 -26 28 -27
211 -29 76 0 95 4 177 36 51 21 109 37 130 37 73 0 70 14 -18 75 -45 32 -106
68 -135 80 l-54 22 41 12 c29 9 66 36 123 92 l81 79 -57 -6 c-31 -4 -73 -3
-93 0 l-37 7 44 47 c47 50 83 127 149 317 22 62 34 111 29 113 -6 2 -38 -14
-73 -36 -34 -21 -114 -65 -177 -97 -90 -46 -129 -72 -177 -121 -62 -63 -73
-68 -73 -30 0 23 -79 258 -97 291 l-12 20 -6 -20z m75 -252 c11 -42 20 -89 20
-105 0 -32 -20 -83 -44 -113 -12 -15 -11 -9 4 25 21 47 25 121 9 155 -7 15 -8
11 -5 -18 3 -20 -1 -59 -8 -86 -12 -48 -43 -107 -52 -99 -2 3 6 56 17 119 20
108 22 205 5 264 -4 11 3 1 14 -23 12 -23 30 -77 40 -119z m450 154 c0 -2 -9
-12 -20 -22 -24 -21 -27 -14 -4 9 15 15 24 20 24 13z m-539 -69 c-6 -17 -11
-54 -11 -82 l-1 -51 -29 35 c-19 22 -28 28 -24 15 11 -31 35 -55 57 -55 17 0
19 -5 12 -46 -3 -26 -9 -53 -12 -61 -9 -23 -35 24 -55 97 l-18 65 5 -54 c2
-30 16 -78 30 -106 26 -54 32 -85 15 -85 -12 0 -33 41 -49 95 -7 22 -17 49
-23 61 -16 33 6 93 57 154 25 30 45 59 46 65 0 5 3 4 6 -3 3 -7 0 -27 -6 -44z
m537 1 c-11 -23 -22 -53 -24 -67 -3 -13 -13 -41 -23 -60 -17 -32 -23 -36 -62
-37 -24 -1 -55 -5 -69 -9 -17 -5 11 28 85 103 60 61 110 111 111 111 1 0 -7
-19 -18 -41z m-48 28 c0 -2 -16 -19 -36 -38 -35 -33 -37 -33 -31 -9 l6 25 -20
-24 c-10 -13 -19 -30 -19 -37 0 -8 -17 -33 -38 -57 -21 -23 -48 -55 -60 -71
-25 -33 -27 -21 -8 52 9 37 10 52 2 49 -11 -3 -38 -76 -56 -152 -5 -22 -16
-49 -24 -60 -14 -18 -15 -16 -16 38 0 70 -14 67 -25 -5 -6 -36 -10 -45 -13
-29 -15 86 80 204 223 279 68 35 115 51 115 39z m-473 -109 c-2 -18 -4 -6 -4
27 0 33 2 48 4 33 2 -15 2 -42 0 -60z m-502 34 c-3 -3 2 -14 12 -24 24 -27 10
-22 -15 5 -17 18 -19 24 -7 24 8 0 13 -3 10 -5z m118 -19 c17 -4 36 -6 42 -4
18 5 92 -21 93 -32 0 -7 7 -31 13 -54 15 -49 9 -60 -20 -41 -15 9 -21 23 -21
50 0 26 -5 38 -14 38 -7 0 -19 7 -26 15 -7 8 -17 15 -22 15 -5 0 2 -14 16 -31
26 -30 34 -59 17 -59 -10 0 -56 43 -84 79 -10 13 -21 20 -24 17 -3 -3 0 -14 8
-23 16 -20 12 -18 -46 26 l-30 23 33 -6 c17 -3 47 -9 65 -13z m-58 -43 c10
-11 16 -20 13 -20 -3 0 -13 9 -23 20 -10 11 -16 20 -13 20 3 0 13 -9 23 -20z
m275 -88 c8 -78 -25 -49 -46 41 -3 15 -10 30 -15 33 -5 3 -9 10 -9 16 0 6 15
-1 33 -14 27 -21 33 -34 37 -76z m-265 48 c10 -11 16 -20 13 -20 -3 0 -13 9
-23 20 -10 11 -16 20 -13 20 3 0 13 -9 23 -20z m205 -107 c0 -7 -100 50 -112
64 -6 8 16 -2 50 -23 34 -20 62 -38 62 -41z m660 72 c0 -8 -84 -53 -140 -75
l-55 -22 30 32 c38 41 57 50 114 60 25 4 47 8 49 9 1 0 2 -1 2 -4z m-516 -144
c18 -48 21 -85 7 -76 -15 8 -40 94 -46 155 l-5 55 14 -45 c7 -25 21 -65 30
-89z m-128 35 c14 -4 24 -9 21 -12 -10 -10 -81 18 -124 49 -65 46 -51 52 17 8
33 -21 71 -42 86 -45z m544 19 c0 -8 -87 -56 -109 -60 -36 -7 -13 15 43 41 51
24 66 28 66 19z m-320 -112 c-47 -85 -66 -97 -39 -26 9 25 56 83 67 83 2 0
-11 -26 -28 -57z m73 -1 c-4 -36 -17 -69 -40 -105 -19 -28 -32 -43 -28 -32 4
11 9 38 13 59 3 22 16 55 29 74 12 19 23 42 23 50 0 8 2 13 5 11 2 -3 2 -29
-2 -57z m293 33 c-18 -14 -16 -15 31 -15 29 0 54 -4 57 -9 6 -8 -28 -43 -54
-55 -8 -4 0 6 17 21 l32 29 -57 -7 c-31 -4 -85 -8 -120 -8 -49 -1 -71 -7 -105
-27 -33 -21 -38 -23 -24 -7 39 44 146 90 212 92 28 0 29 0 11 -14z m-629 -27
c11 -13 26 -33 32 -45 11 -21 10 -22 -20 -11 -17 6 -35 21 -41 34 -12 25 -41
43 -31 18 7 -20 -17 -17 -47 6 l-25 20 56 0 c45 0 59 -4 76 -22z m-122 -13
l30 -25 -40 8 c-22 4 -63 7 -92 7 -60 0 -57 9 7 23 63 14 62 14 95 -13z m236
-68 l21 -39 -36 27 c-20 15 -36 32 -36 37 0 6 -10 24 -22 41 l-23 32 38 -29
c21 -16 47 -47 58 -69z m64 -38 c5 -38 3 -35 -15 21 -23 77 -24 83 -5 49 8
-15 17 -46 20 -70z m321 82 c-9 -15 -76 -51 -76 -41 0 11 52 49 68 50 7 0 11
-4 8 -9z m129 -3 c-19 -11 -19 -11 0 -18 19 -7 19 -7 0 -17 -12 -7 -45 -8 -85
-4 l-65 7 40 9 c22 4 54 14 70 21 38 17 68 18 40 2z m-812 -4 c20 -4 37 -11
37 -15 0 -12 -27 -10 -75 6 -43 14 -24 19 38 9z m133 -11 c16 -6 16 -7 -1 -13
-27 -9 -71 0 -53 11 16 11 31 11 54 2z m424 -26 c0 -2 -19 -21 -42 -42 l-43
-40 40 43 c36 39 45 47 45 39z m-440 -15 c18 -7 19 -10 8 -20 -14 -11 -92 1
-111 18 -11 10 77 12 103 2z m87 2 c-3 -3 -12 -4 -19 -1 -8 3 -5 6 6 6 11 1
17 -2 13 -5z m56 -16 c15 -11 7 -12 -45 -9 -56 4 -59 5 -28 12 53 10 55 10 73
-3z m162 -40 c-8 -58 -28 -107 -38 -91 -6 10 30 143 39 143 3 0 3 -24 -1 -52z
m298 45 c-18 -2 -48 -2 -65 0 -18 2 -4 4 32 4 36 0 50 -2 33 -4z m-601 -68
c-35 -13 -73 -33 -83 -44 -11 -12 -25 -21 -32 -21 -6 0 2 14 19 31 32 32 92
58 134 58 16 0 2 -9 -38 -24z m665 12 c43 -11 183 -90 183 -103 0 -2 -14 -4
-32 -4 -17 0 -28 3 -25 7 9 8 -40 53 -61 54 -9 1 -37 1 -62 -1 l-45 -2 20 23
20 22 -20 -9 c-11 -4 -44 -8 -73 -6 -32 1 -66 -5 -82 -13 -34 -18 -44 -19 -35
-5 13 21 81 49 120 50 22 0 64 -6 92 -13z m-263 -53 c-44 -51 -84 -84 -84 -68
0 4 11 26 24 48 24 41 55 63 104 75 2 1 -18 -24 -44 -55z m-230 40 c22 -8
-115 -90 -166 -99 -44 -8 -45 -4 -18 41 21 33 35 41 87 50 15 3 30 7 32 10 6
6 47 5 65 -2z m-204 -44 c-8 -5 -22 -10 -30 -10 -13 0 -13 1 0 10 8 5 22 10
30 10 13 0 13 -1 0 -10z m778 -26 c24 -5 30 -23 10 -28 -7 -2 -29 -8 -48 -15
-25 -8 -36 -8 -39 0 -2 6 -26 22 -55 35 l-51 25 80 -6 c44 -3 90 -8 103 -11z
m-797 -18 c-10 -12 -81 -19 -81 -9 0 7 46 22 69 22 19 1 21 -2 12 -13z m574
-37 c20 -22 34 -43 32 -46 -3 -2 -21 -1 -41 2 -31 6 -36 12 -42 41 -3 19 -11
34 -16 34 -6 0 -8 -13 -4 -30 6 -33 6 -33 -43 -1 l-24 15 29 13 c49 21 70 15
109 -28z m111 9 l34 -23 -27 -12 c-36 -16 -73 -16 -73 -1 0 7 -12 25 -27 41
l-28 30 43 -6 c24 -3 59 -16 78 -29z"/>
<path d="M2255 2607 c-4 -10 -5 -21 -1 -24 10 -10 18 4 13 24 -4 17 -4 17 -12
0z"/>
<path d="M2513 2374 c-3 -8 2 -23 11 -32 16 -16 18 -16 31 2 11 14 12 23 4 33
-15 18 -38 16 -46 -3z"/>
<path d="M2042 2314 c-39 -27 -27 -72 31 -107 39 -25 34 -39 -14 -35 -49 4
-61 -13 -24 -30 36 -16 66 -15 93 4 34 23 26 63 -18 92 -47 31 -51 46 -11 40
24 -3 35 0 42 13 18 35 -57 53 -99 23z"/>
<path d="M2639 2301 c-23 -24 -29 -38 -29 -74 0 -39 5 -49 32 -72 26 -22 39
-26 67 -21 39 6 56 19 46 36 -4 7 -18 9 -37 5 -37 -9 -68 17 -68 55 0 35 23
54 57 47 50 -9 74 21 34 43 -35 18 -71 11 -102 -19z"/>
<path d="M2845 2319 c-34 -20 -45 -41 -45 -91 0 -39 5 -54 26 -75 21 -21 32
-24 61 -20 40 7 66 25 57 39 -4 6 -19 7 -35 4 -49 -10 -82 15 -39 29 32 10 80
55 80 75 0 36 -67 61 -105 39z m40 -59 c-21 -23 -45 -26 -45 -7 0 20 10 27 38
27 24 0 25 -1 7 -20z"/>
<path d="M3012 2314 c-36 -25 -28 -60 23 -96 51 -36 49 -53 -6 -44 -31 5 -39
3 -39 -9 0 -35 85 -48 113 -17 32 35 19 72 -37 106 -34 22 -22 42 17 27 20 -8
27 -7 32 7 14 37 -60 56 -103 26z"/>
<path d="M2200 2195 c0 -118 1 -125 20 -125 16 0 20 7 20 35 0 33 2 35 26 29
51 -13 94 32 94 100 0 68 -67 110 -112 69 -17 -15 -18 -15 -18 0 0 10 -7 17
-15 17 -13 0 -15 -21 -15 -125z m104 63 c20 -29 20 -41 -2 -68 -36 -45 -81 15
-48 65 20 31 30 31 50 3z"/>
<path d="M2405 2307 c-3 -7 -5 -47 -3 -88 3 -68 5 -74 26 -77 22 -3 23 -2 20
85 -3 74 -6 88 -21 91 -9 2 -20 -3 -22 -11z"/>
<path d="M2517 2314 c-9 -9 -9 -136 -1 -158 3 -9 15 -16 25 -16 18 0 20 7 17
87 -2 70 -6 88 -18 91 -9 1 -19 0 -23 -4z"/>
<path d="M2380 1990 c0 -39 1 -41 28 -38 24 3 27 7 27 38 0 31 -3 35 -27 38
-27 3 -28 1 -28 -38z m40 6 c0 -14 -4 -28 -10 -31 -6 -4 -10 7 -10 24 0 17 5
31 10 31 6 0 10 -11 10 -24z"/>
<path d="M2476 2018 c-15 -47 -16 -70 -4 -64 7 3 20 9 30 12 13 5 15 11 6 35
-10 30 -26 38 -32 17z m24 -28 c0 -5 -5 -10 -11 -10 -5 0 -7 5 -4 10 3 6 8 10
11 10 2 0 4 -4 4 -10z"/>
<path d="M2537 2020 c-16 -43 -17 -70 -3 -70 10 0 12 7 9 23 l-5 22 16 -22
c25 -34 36 -28 34 20 -1 36 -2 38 -5 10 -2 -18 -8 -33 -12 -33 -5 0 -13 15
-18 33 -7 21 -12 27 -16 17z"/>
<path d="M2614 2016 c-11 -29 1 -61 24 -64 12 -2 22 1 22 7 0 6 -3 10 -7 10
-23 -4 -33 3 -33 21 0 13 7 20 20 20 11 0 20 5 20 10 0 15 -40 12 -46 -4z"/>
<path d="M2695 2000 c-4 -12 -2 -27 4 -33 8 -8 11 -6 11 6 0 15 14 17 120 17
73 0 120 4 120 10 0 6 -43 10 -109 10 -60 0 -116 3 -124 6 -10 3 -18 -2 -22
-16z"/>
<path d="M2165 2000 c3 -6 48 -10 101 -10 56 0 94 4 94 10 0 6 -40 10 -101 10
-64 0 -98 -4 -94 -10z"/>
<path d="M3163 1881 c-13 -11 -53 -24 -90 -31 -67 -11 -108 -30 -228 -104 -33
-20 -84 -44 -115 -53 -95 -29 -114 -62 -80 -141 25 -56 26 -55 -97 -113 -80
-37 -83 -40 -83 -73 0 -37 40 -86 70 -86 34 0 117 31 172 64 130 78 168 97
162 83 -3 -8 -32 -34 -64 -57 -71 -49 -90 -74 -90 -118 0 -32 36 -82 60 -82 5
0 28 16 50 36 22 20 40 31 40 24 0 -7 13 -24 30 -40 l29 -27 -84 -27 c-100
-32 -147 -67 -143 -105 6 -55 110 -90 221 -76 152 20 340 87 383 138 22 27 25
36 19 76 -10 69 -21 76 -84 52 -51 -21 -124 -29 -106 -13 6 5 31 16 57 26 57
21 114 82 124 131 16 85 -31 138 -105 119 -49 -13 -45 -5 14 33 56 35 61 51
36 101 -23 46 -39 54 -84 45 -27 -5 -30 -4 -21 8 6 8 30 39 53 69 37 46 42 59
37 88 -5 36 -31 72 -50 72 -6 -1 -21 -9 -33 -19z m-214 -265 c-3 -3 -11 5 -18
17 -13 21 -12 21 5 5 10 -10 16 -20 13 -22z m174 -3 c-7 -2 -19 -2 -25 0 -7 3
-2 5 12 5 14 0 19 -2 13 -5z m-56 -9 c-3 -3 -12 -4 -19 -1 -8 3 -5 6 6 6 11 1
17 -2 13 -5z m-170 -30 c-3 -3 -12 -4 -19 -1 -8 3 -5 6 6 6 11 1 17 -2 13 -5z
m-47 -8 c0 -3 -4 -8 -10 -11 -5 -3 -10 -1 -10 4 0 6 5 11 10 11 6 0 10 -2 10
-4z m107 -38 c-3 -8 -6 -5 -6 6 -1 11 2 17 5 13 3 -3 4 -12 1 -19z m40 -50
c-3 -8 -6 -5 -6 6 -1 11 2 17 5 13 3 -3 4 -12 1 -19z m221 -43 c-2 -3 -29 -15
-59 -29 -40 -18 -56 -21 -56 -11 0 8 7 11 15 7 9 -3 13 -1 9 5 -4 6 14 19 41
31 27 12 48 17 51 11 1 -6 1 -12 -1 -14z m22 -26 c0 -15 -4 -19 -16 -15 -13 5
-16 0 -12 -29 3 -23 0 -35 -8 -35 -6 0 -14 -7 -18 -15 -3 -8 0 -15 6 -15 22 0
-1 -12 -29 -15 -15 -2 -44 -6 -63 -9 -24 -5 -29 -4 -15 2 18 8 17 10 -12 16
-19 4 -41 3 -53 -4 -12 -6 -29 -10 -38 -8 -11 2 -2 12 30 31 53 31 62 33 55
12 -4 -8 -1 -17 5 -21 7 -5 8 -2 3 6 -5 8 -4 11 3 7 5 -4 17 -4 26 -1 13 5 13
10 4 27 -9 18 -9 20 3 12 8 -6 26 -12 41 -13 23 -3 26 0 24 22 -2 19 3 27 25
37 16 6 29 15 29 20 0 5 2 9 5 9 3 0 5 -9 5 -21z m-150 -19 c0 -16 -38 -32
-46 -18 -4 7 -3 8 4 4 7 -4 12 -2 12 4 0 6 5 8 10 5 6 -3 10 -1 10 4 0 6 2 11
5 11 3 0 5 -4 5 -10z m-116 -75 c-34 -26 -51 -16 -19 10 17 14 32 20 34 14 1
-6 -5 -17 -15 -24z m138 -122 c-6 -2 -9 -9 -6 -15 4 -7 -5 -8 -27 -3 -26 5
-31 4 -19 -5 12 -9 7 -10 -19 -5 -24 5 -32 4 -26 -5 4 -7 2 -10 -6 -9 -8 1
-27 -3 -42 -9 -40 -17 -77 -25 -77 -18 0 10 65 36 144 56 68 18 106 24 78 13z
m48 -37 c0 -11 -19 -15 -25 -6 -3 5 1 10 9 10 9 0 16 -2 16 -4z m-45 -16 c3
-5 4 -10 1 -10 -2 0 -12 -3 -20 -6 -12 -5 -15 -2 -10 10 7 18 20 21 29 6z
m-95 -20 c0 -5 -2 -10 -4 -10 -3 0 -8 5 -11 10 -3 6 -1 10 4 10 6 0 11 -4 11
-10z m-65 -20 c3 -6 -1 -7 -9 -4 -18 7 -21 14 -7 14 6 0 13 -4 16 -10z m15
-41 c-28 -8 -82 -10 -62 -2 6 2 10 8 8 12 -2 3 14 4 37 2 37 -4 39 -5 17 -12z"/>
<path d="M1846 1849 c-35 -41 -35 -92 -2 -115 22 -13 29 -14 53 -2 23 11 29
20 31 56 3 46 -18 92 -42 92 -8 0 -26 -14 -40 -31z"/>
<path d="M2310 1841 c0 -34 3 -41 19 -41 28 0 34 16 19 47 -21 43 -38 41 -38
-6z m30 -6 c0 -8 -4 -15 -10 -15 -5 0 -10 7 -10 15 0 8 5 15 10 15 6 0 10 -7
10 -15z"/>
<path d="M2368 1858 c-5 -32 1 -58 16 -58 7 0 11 12 10 28 -1 15 -3 33 -3 40
-2 21 -18 13 -23 -10z"/>
<path d="M2410 1860 c0 -11 7 -23 15 -26 8 -4 15 -10 15 -15 0 -4 -7 -6 -15
-3 -8 4 -15 1 -15 -5 0 -15 37 -14 46 1 4 6 -2 19 -14 29 -27 21 -27 26 -4 32
13 4 11 5 -5 6 -17 1 -23 -5 -23 -19z"/>
<path d="M2480 1840 c0 -22 3 -40 8 -40 4 0 7 18 7 40 0 22 -3 40 -7 40 -5 0
-8 -18 -8 -40z"/>
<path d="M2515 1860 c-3 -11 -3 -29 0 -40 8 -25 45 -27 44 -2 0 10 -3 12 -6 4
-7 -19 -23 -4 -23 24 0 25 15 33 23 12 3 -8 6 -6 6 5 1 24 -36 22 -44 -3z"/>
<path d="M2580 1866 c0 -8 9 -21 20 -29 11 -8 17 -17 13 -20 -3 -4 -12 -2 -20
4 -10 9 -13 8 -13 -5 0 -10 9 -16 25 -16 18 0 25 5 25 20 0 11 -7 23 -15 26
-8 4 -15 11 -15 16 0 6 7 8 15 4 8 -3 15 -1 15 4 0 6 -11 10 -25 10 -15 0 -25
-6 -25 -14z"/>
<path d="M2650 1840 c0 -33 3 -40 20 -40 11 0 20 4 20 10 0 5 -7 7 -15 4 -9
-4 -15 0 -15 9 0 9 8 18 18 20 16 4 16 5 0 6 -10 0 -18 5 -18 10 0 5 8 12 18
14 13 4 11 5 -5 6 -20 1 -23 -4 -23 -39z"/>
<path d="M2710 1840 c0 -36 3 -40 25 -40 14 0 25 4 25 10 0 5 -7 7 -15 4 -11
-5 -15 1 -15 20 0 17 5 26 16 26 8 0 12 5 9 10 -3 6 -15 10 -26 10 -16 0 -19
-7 -19 -40z"/>
<path d="M2780 1840 c0 -22 5 -40 10 -40 6 0 10 18 10 40 0 22 -4 40 -10 40
-5 0 -10 -18 -10 -40z"/>
<path d="M1976 1818 c-18 -25 -21 -94 -6 -132 8 -23 15 -26 54 -26 40 0 47 3
61 30 23 45 19 97 -10 125 -31 32 -78 33 -99 3z"/>
<path d="M2428 1733 c68 -2 176 -2 240 0 64 1 9 3 -123 3 -132 0 -185 -2 -117
-3z"/>
<path d="M1854 1679 c-3 -6 -1 -16 5 -23 8 -10 6 -18 -9 -31 -24 -22 -25 -38
-5 -55 13 -11 24 -9 65 10 28 13 53 20 57 17 3 -4 -1 -7 -10 -7 -8 0 -30 -14
-47 -31 -25 -26 -30 -38 -28 -68 l3 -36 71 1 c50 0 80 5 98 18 l27 17 -21 28
c-17 25 -18 30 -5 41 29 24 16 46 -49 82 -64 35 -141 54 -152 37z m155 -77
c-12 -2 -26 2 -30 10 -16 24 -9 27 21 10 27 -16 28 -17 9 -20z"/>
<path d="M1758 1600 c-9 -98 -9 -327 1 -515 l6 -129 105 -14 c91 -11 130 -11
289 3 269 24 380 58 445 136 33 39 33 54 -1 85 -19 18 -32 22 -47 17 -12 -5
-89 -7 -172 -5 -174 4 -306 -11 -349 -39 -16 -10 -42 -25 -57 -31 -15 -7 -29
-22 -33 -35 -9 -39 29 -92 67 -93 21 0 121 -21 116 -24 -6 -5 -294 12 -320 19
l-26 7 -2 156 c-1 87 -5 245 -9 352 -5 180 -7 188 -13 110z m682 -460 c41 -4
64 -7 51 -8 -15 -1 -21 -7 -18 -16 4 -9 -6 -15 -31 -20 -95 -15 -321 5 -291
26 9 6 0 7 -26 3 -22 -4 -37 -4 -33 0 20 20 211 28 348 15z m-220 -80 c0 -5
-4 -10 -10 -10 -5 0 -10 5 -10 10 0 6 5 10 10 10 6 0 10 -4 10 -10z m57 -6
c-3 -3 -12 -4 -19 -1 -8 3 -5 6 6 6 11 1 17 -2 13 -5z"/>
<path d="M2143 1655 c-38 -26 -37 -92 1 -117 25 -17 65 -8 86 19 25 32 20 69
-12 96 -25 21 -47 22 -75 2z"/>
<path d="M2313 1545 c-67 -18 -159 -66 -298 -153 -129 -81 -139 -101 -83 -159
45 -47 83 -66 118 -58 45 10 135 73 251 176 58 52 122 108 142 126 41 35 44
44 21 67 -19 20 -80 20 -151 1z m-57 -64 c-7 -10 -163 -101 -173 -101 -5 0 0
5 10 11 9 5 17 16 17 23 0 17 110 75 129 68 9 -3 11 0 6 8 -5 9 -4 11 4 6 6
-4 9 -11 7 -15z m-143 -126 c-3 -9 -8 -14 -10 -11 -3 3 -2 9 2 15 9 16 15 13
8 -4z m-133 -34 c0 -5 -7 -11 -14 -14 -10 -4 -13 -1 -9 9 6 15 23 19 23 5z"/>
<path d="M3340 1090 c0 -151 1 -149 -112 -170 -73 -13 -222 -58 -198 -59 8 -1
45 7 81 18 36 10 94 22 129 26 46 5 69 14 87 31 22 22 23 30 23 154 0 71 -2
130 -5 130 -3 0 -5 -58 -5 -130z"/>
<path d="M1731 1194 c0 -11 3 -14 6 -6 3 7 2 16 -1 19 -3 4 -6 -2 -5 -13z"/>
<path d="M1711 1021 c-17 -168 -14 -176 72 -166 34 5 121 8 192 7 221 -2 247
13 35 20 -126 4 -199 3 -228 -5 -35 -9 -45 -9 -51 2 -5 7 -6 71 -3 142 3 71 3
129 0 129 -3 0 -10 -58 -17 -129z"/>
<path d="M3366 905 c-11 -8 -15 -15 -9 -15 6 0 16 7 23 15 16 19 11 19 -14 0z"/>
<path d="M3426 3951 c-3 -5 4 -21 15 -36 19 -23 23 -25 36 -12 12 12 13 19 4
36 -12 21 -45 29 -55 12z"/>
<path d="M3380 3829 c0 -5 4 -9 8 -9 5 0 7 -13 4 -29 -7 -53 65 -95 98 -56 17
20 9 45 -20 66 -30 23 -90 42 -90 28z"/>
<path d="M1245 3775 c-52 -51 -15 -135 60 -135 76 0 116 94 59 139 -37 29 -89
27 -119 -4z"/>
<path d="M1507 3649 c-20 -22 -21 -35 -7 -44 15 -9 40 14 40 36 0 27 -14 30
-33 8z"/>
<path d="M3798 3654 c-15 -8 -30 -25 -34 -39 -8 -33 11 -87 41 -115 22 -20 28
-22 50 -12 26 12 55 65 55 101 0 24 -38 67 -65 75 -11 3 -32 -2 -47 -10z"/>
<path d="M3610 3653 c-34 -12 -50 -37 -50 -74 0 -47 31 -72 82 -67 27 2 36 10
51 39 21 44 10 80 -30 98 -26 12 -30 12 -53 4z"/>
<path d="M3955 3619 c-9 -27 14 -44 34 -24 16 16 8 45 -13 45 -8 0 -18 -10
-21 -21z"/>
<path d="M4094 3466 c-17 -8 -40 -27 -52 -42 -17 -23 -23 -27 -33 -16 -7 6
-25 12 -40 12 -36 0 -45 -27 -24 -75 19 -47 19 -45 -6 -45 -43 0 -73 -31 -93
-97 -11 -36 24 -63 83 -63 47 0 49 -1 55 -33 3 -19 17 -44 31 -57 21 -20 28
-22 50 -12 26 12 55 65 55 101 0 16 5 18 33 12 41 -9 88 3 112 29 15 17 16 23
5 50 -14 34 -64 80 -87 80 -8 0 -12 6 -9 13 25 61 28 84 12 120 -17 41 -38 46
-92 23z m-2 -49 c-11 -12 -28 -38 -36 -57 -12 -28 -15 -30 -16 -13 0 20 53 93
68 93 3 0 -4 -10 -16 -23z m48 -80 c0 -2 -15 -16 -32 -33 l-33 -29 29 33 c28
30 36 37 36 29z m-120 -71 c0 -2 -8 -10 -17 -17 -16 -13 -17 -12 -4 4 13 16
21 21 21 13z m131 -31 c19 -8 27 -14 19 -14 -14 0 -72 28 -59 29 4 0 22 -7 40
-15z m-84 -102 c-2 -21 -4 -4 -4 37 0 41 2 58 4 38 2 -21 2 -55 0 -75z m-60
-10 c-3 -10 -5 -2 -5 17 0 19 2 27 5 18 2 -10 2 -26 0 -35z"/>
<path d="M3544 3455 c3 -9 6 -19 6 -21 0 -2 7 -4 16 -4 22 0 13 34 -10 38 -14
3 -17 0 -12 -13z"/>
<path d="M3760 3422 c-19 -11 -42 -35 -53 -55 -16 -31 -17 -42 -7 -72 21 -62
78 -73 133 -25 19 16 37 43 40 59 9 42 -11 91 -40 102 -32 12 -33 12 -73 -9z"/>
<path d="M1056 3338 c-9 -12 -16 -29 -16 -36 0 -8 -7 -11 -17 -8 -10 3 -35 8
-55 12 -46 8 -58 -11 -32 -51 17 -26 17 -28 -2 -42 -10 -8 -25 -18 -33 -22
-21 -12 -5 -29 39 -42 39 -12 40 -14 40 -56 0 -50 14 -83 35 -83 8 0 29 17 46
39 l33 39 39 -21 c22 -11 42 -16 47 -11 15 15 21 73 10 94 -9 17 -7 22 14 32
58 26 31 88 -38 88 -27 0 -34 6 -51 42 -24 50 -38 57 -59 26z m-38 -125 c-10
-2 -26 -2 -35 0 -10 3 -2 5 17 5 19 0 27 -2 18 -5z"/>
<path d="M3673 3196 c-24 -11 -30 -31 -12 -41 15 -10 56 3 63 20 8 21 -24 34
-51 21z"/>
<path d="M1285 3115 c-49 -48 -16 -125 53 -125 78 0 101 100 31 135 -39 21
-56 19 -84 -10z"/>
<path d="M3644 3096 c-50 -22 -58 -68 -21 -112 47 -54 137 -24 137 46 0 58
-59 91 -116 66z"/>
<path d="M3810 3001 c-5 -11 -10 -33 -10 -49 0 -27 -4 -30 -40 -36 -54 -8 -63
-32 -24 -63 16 -12 35 -23 42 -23 10 0 9 -7 -3 -30 -19 -36 -19 -70 -1 -95 12
-17 17 -18 40 -7 14 6 35 26 46 44 12 20 20 27 20 16 0 -19 55 -68 75 -68 20
0 38 38 31 65 -5 20 -1 23 35 28 73 10 78 44 12 74 -21 10 -40 19 -42 20 -3 2
5 13 17 26 30 32 28 37 -13 37 -30 0 -35 3 -35 24 0 59 -26 73 -58 31 l-19
-24 -22 24 c-25 30 -37 31 -51 6z"/>
<path d="M1060 2926 c0 -8 4 -17 8 -20 13 -8 35 11 28 23 -10 16 -36 14 -36
-3z"/>
<path d="M1197 2915 c-17 -42 42 -90 73 -59 13 13 13 18 0 42 -18 31 -64 42
-73 17z"/>
<path d="M1407 2912 c-41 -45 0 -124 71 -138 59 -12 101 51 72 107 -25 45
-113 64 -143 31z"/>
<path d="M3588 2849 c-36 -21 -15 -74 36 -93 23 -8 56 19 56 46 0 23 -35 58
-57 58 -10 0 -26 -5 -35 -11z"/>
<path d="M4150 2840 c-39 -39 -15 -110 37 -110 11 0 29 10 41 23 58 61 -19
146 -78 87z"/>
<path d="M984 2796 c-54 -46 -30 -127 42 -142 44 -9 94 35 94 82 0 73 -80 109
-136 60z"/>
<path d="M1375 2740 c3 -5 8 -10 11 -10 2 0 4 5 4 10 0 6 -5 10 -11 10 -5 0
-7 -4 -4 -10z"/>
<path d="M1492 2728 c6 -18 28 -21 28 -4 0 9 -7 16 -16 16 -9 0 -14 -5 -12
-12z"/>
<path d="M1235 2689 c-124 -72 -264 -139 -292 -139 -16 0 -53 7 -83 15 -30 8
-69 15 -87 15 -29 0 -33 -4 -43 -41 -6 -22 -10 -57 -8 -77 3 -33 7 -38 45 -52
39 -14 40 -16 27 -35 -33 -43 17 -129 82 -141 34 -6 68 7 143 59 29 20 46 26
49 19 12 -38 74 -56 100 -30 21 21 13 34 -25 45 -34 10 -32 10 22 5 33 -4 76
-7 95 -7 l35 0 3 53 c2 34 -3 64 -13 85 l-16 32 56 51 c58 54 67 81 44 127
-11 21 -48 57 -59 57 -3 0 -36 -19 -75 -41z m75 -7 c0 -11 -120 -82 -138 -82
-7 0 -26 -7 -41 -15 -16 -8 -31 -11 -35 -8 -3 3 36 30 87 59 87 50 127 64 127
46z m-354 -164 c83 -19 140 -36 137 -42 -4 -5 1 -7 10 -3 10 4 44 -7 79 -23
56 -27 59 -30 32 -30 -17 0 -71 14 -120 31 -49 17 -114 33 -144 36 -30 3 -68
12 -83 20 -15 8 -31 11 -36 9 -5 -3 -16 3 -26 14 -24 27 -19 26 151 -12z"/>
<path d="M1403 2697 c5 -15 37 -22 37 -9 0 5 -9 12 -21 15 -13 3 -19 1 -16 -6z"/>
<path d="M3740 2660 c0 -5 5 -10 10 -10 6 0 10 5 10 10 0 6 -4 10 -10 10 -5 0
-10 -4 -10 -10z"/>
<path d="M3930 2504 c-80 -63 -196 -148 -257 -190 -129 -85 -133 -93 -77 -161
57 -69 74 -73 136 -31 29 19 65 42 80 52 l27 17 -17 -51 c-11 -36 -13 -56 -6
-68 13 -22 450 -242 481 -242 17 0 28 9 39 33 9 18 29 40 45 50 35 19 61 76
57 121 -3 29 -11 35 -114 86 -134 66 -324 172 -324 182 0 3 30 25 68 48 84 53
112 78 112 102 0 34 -78 168 -98 168 -4 0 -72 -52 -152 -116z m150 28 c0 -4
-10 -13 -22 -21 -23 -14 -23 -14 -4 8 20 22 26 25 26 13z m-175 -91 c6 -11
-205 -164 -214 -155 -3 3 1 9 9 14 8 5 56 40 105 78 50 39 91 70 92 71 1 1 4
-3 8 -8z m-59 -96 c-32 -29 -74 -61 -93 -70 -19 -9 -51 -28 -70 -41 -37 -25
-53 -30 -53 -16 0 5 18 16 39 25 22 10 81 49 133 87 51 38 95 69 98 69 3 0
-21 -24 -54 -54z m227 -169 c21 -13 23 -30 3 -23 -8 3 -16 2 -18 -3 -5 -14
-53 15 -50 29 1 7 -2 10 -8 6 -6 -4 -18 -4 -26 -1 -12 4 -13 10 -4 26 l11 21
37 -22 c20 -13 45 -28 55 -33z m77 -7 c0 -5 4 -8 8 -5 4 2 14 1 21 -3 9 -6 10
-11 2 -15 -6 -4 -11 -2 -11 4 0 6 -3 9 -8 6 -4 -2 -16 2 -27 10 -16 12 -17 14
-2 14 9 0 17 -5 17 -11z m-30 -30 c0 -5 -4 -9 -10 -9 -5 0 -10 7 -10 16 0 8 5
12 10 9 6 -3 10 -10 10 -16z m151 -27 c-6 -2 -9 -8 -6 -13 4 -5 -1 -6 -9 -3
-9 3 -16 10 -16 16 0 5 -5 6 -10 3 -6 -3 -13 1 -16 9 -3 9 -11 13 -17 9 -5 -3
-7 -1 -3 5 4 7 19 5 47 -6 23 -9 37 -18 30 -20z m-117 7 c20 3 26 0 20 -11 -4
-7 -3 -8 4 -4 6 4 28 -4 49 -16 21 -13 50 -30 66 -37 15 -8 27 -21 27 -28 0
-11 -3 -11 -16 2 -11 10 -25 14 -40 11 -16 -4 -24 -2 -24 6 0 9 -2 10 -8 2 -8
-14 -73 -13 -64 0 3 5 -4 7 -16 4 -16 -5 -20 -2 -17 13 2 11 -1 19 -7 19 -7 0
-7 5 1 14 9 11 9 15 0 18 -8 3 -9 9 -5 17 7 10 10 10 16 1 4 -6 10 -11 14 -11z
m210 -107 c3 -5 -1 -9 -9 -9 -8 0 -12 4 -9 9 3 4 7 8 9 8 2 0 6 -4 9 -8z"/>
<path d="M3812 2573 c4 -32 20 -39 41 -18 21 21 11 45 -20 45 -21 0 -24 -4
-21 -27z"/>
<path d="M1344 2436 c-7 -19 3 -36 22 -36 10 0 14 8 12 22 -4 26 -26 36 -34
14z"/>
<path d="M4227 2356 c-8 -20 20 -43 35 -28 14 14 3 42 -16 42 -7 0 -16 -6 -19
-14z"/>
<path d="M1120 2192 c0 -24 14 -42 32 -42 29 0 20 44 -9 48 -13 2 -23 -1 -23
-6z"/>
<path d="M1016 2116 c-15 -14 -26 -36 -26 -49 0 -37 36 -77 70 -77 33 0 70 40
70 75 0 30 -29 63 -62 71 -21 4 -33 0 -52 -20z"/>
<path d="M3648 2049 c-10 -5 -18 -15 -18 -20 0 -6 6 -7 13 -3 9 6 9 4 -1 -8
-10 -13 -9 -20 7 -39 18 -22 19 -22 45 -6 31 21 37 73 9 84 -9 4 -19 1 -21 -5
-2 -7 -8 -12 -13 -12 -6 0 -7 5 -4 10 8 12 5 12 -17 -1z"/>
<path d="M3767 1973 c-25 -29 -30 -68 -13 -102 30 -57 98 -70 141 -26 41 40
30 88 -29 124 -41 26 -78 27 -99 4z m72 -12 c12 -8 25 -41 17 -41 -1 0 -13 11
-26 25 -23 25 -18 33 9 16z"/>
<path d="M810 1926 c0 -8 15 -43 33 -78 l33 -64 -33 4 c-45 6 -83 -5 -83 -23
0 -8 15 -32 34 -53 l35 -38 -35 -19 c-42 -22 -124 -108 -124 -130 0 -29 147
-11 241 29 13 6 18 -1 22 -31 4 -21 14 -48 22 -60 l16 -23 36 24 36 25 46 -48
c53 -56 116 -91 162 -91 l32 0 -7 71 c-4 38 -13 88 -21 109 l-13 38 36 7 c43
8 72 22 72 35 0 16 -112 99 -142 105 -32 8 -31 3 -17 60 14 57 5 115 -19 115
-9 0 -41 -12 -71 -25 l-54 -26 -29 31 c-15 17 -47 40 -70 50 -52 24 -138 27
-138 6z m111 -52 c9 -11 2 -9 -18 6 -18 13 -33 25 -33 27 0 8 38 -17 51 -33z
m70 -41 c13 -16 12 -17 -3 -4 -10 7 -18 15 -18 17 0 8 8 3 21 -13z m30 -136
c-10 -9 -11 -8 -5 6 3 10 9 15 12 12 3 -3 0 -11 -7 -18z m-51 -21 c0 -3 -4 -8
-10 -11 -5 -3 -10 -1 -10 4 0 6 5 11 10 11 6 0 10 -2 10 -4z m179 -141 c18
-25 26 -42 18 -39 -12 4 -64 84 -54 84 2 0 18 -20 36 -45z m62 28 c13 -17 13
-17 -6 -3 -11 8 -22 16 -24 17 -2 2 0 3 6 3 6 0 17 -8 24 -17z m-180 -16 c-10
-9 -11 -8 -5 6 3 10 9 15 12 12 3 -3 0 -11 -7 -18z m119 -102 l35 -40 -33 30
c-19 17 -38 39 -44 50 -6 11 -7 16 -2 10 5 -5 25 -28 44 -50z"/>
<path d="M3970 1796 c0 -9 7 -16 16 -16 17 0 14 22 -4 28 -7 2 -12 -3 -12 -12z"/>
<path d="M4116 1739 c-32 -38 -33 -70 -3 -105 50 -58 137 -17 137 65 0 47 -24
71 -72 71 -28 0 -42 -7 -62 -31z"/>
<path d="M3811 1743 c-55 -47 -24 -127 47 -121 49 4 72 41 53 85 -11 27 -46
53 -70 53 -5 0 -18 -8 -30 -17z"/>
<path d="M3669 1731 c-23 -19 -23 -20 -6 -38 18 -17 19 -17 37 5 18 21 18 52
0 52 -4 0 -18 -9 -31 -19z"/>
<path d="M3681 1573 c-46 -57 -39 -109 22 -167 49 -47 129 -86 177 -86 54 0
109 44 110 87 0 18 -27 41 -127 108 -71 47 -135 85 -145 85 -9 0 -26 -12 -37
-27z m169 -72 c52 -33 90 -61 85 -61 -6 0 -27 11 -48 25 -20 14 -41 24 -45 21
-13 -8 -72 32 -72 49 0 8 -6 15 -14 15 -8 0 -18 5 -22 12 -12 19 14 5 116 -61z
m-115 1 c6 -4 16 -18 24 -32 13 -24 12 -23 -18 4 -17 17 -31 31 -31 33 0 6 15
3 25 -5z"/>
<path d="M4041 1537 c-17 -21 -3 -49 23 -45 15 2 21 10 21 28 0 28 -26 38 -44
17z"/>
<path d="M1463 1369 c-16 -16 -5 -39 19 -39 14 0 19 6 16 22 -4 25 -19 33 -35
17z"/>
<path d="M1063 1324 c-8 -21 13 -42 28 -27 13 13 5 43 -11 43 -6 0 -13 -7 -17
-16z"/>
<path d="M1194 1217 c-100 -40 -189 -78 -198 -86 -52 -44 30 -184 117 -198 50
-8 107 15 240 94 120 72 131 87 118 159 -11 57 -40 98 -72 101 -13 1 -106 -30
-205 -70z m163 15 c0 -21 -8 -33 -29 -45 -18 -10 -27 -12 -23 -4 4 6 -3 1 -14
-12 -12 -13 -21 -18 -21 -12 0 7 -5 9 -10 6 -6 -3 -13 0 -16 8 -4 12 -13 13
-35 7 -30 -9 -42 4 -11 13 13 4 154 63 158 66 0 1 1 -12 1 -27z m-107 -94 c0
-5 -7 -8 -15 -8 -8 0 -15 -6 -15 -12 0 -9 -3 -9 -9 1 -5 8 -16 11 -25 8 -26
-10 -19 -1 16 21 31 20 47 16 48 -10z"/>
<path d="M4040 1271 c0 -5 -13 -11 -30 -14 -19 -4 -40 -21 -60 -48 l-30 -41
-10 26 c-5 15 -17 29 -26 33 -23 8 -46 -25 -42 -58 l4 -26 -48 21 c-66 28
-103 15 -103 -34 -1 -19 -5 -44 -10 -54 -6 -15 -2 -25 19 -43 15 -12 35 -23
46 -23 34 0 50 -12 50 -37 0 -69 53 -84 104 -29 l31 34 24 -19 c33 -27 69 -25
83 6 8 19 8 28 -2 39 -10 13 -8 17 14 27 33 15 33 34 0 55 -22 15 -23 19 -9
26 28 16 37 55 20 93 -7 19 -10 35 -4 35 5 0 9 9 9 20 0 11 -7 20 -15 20 -8 0
-15 -4 -15 -9z m-252 -141 c2 -5 11 -7 20 -4 9 2 7 -1 -6 -7 -25 -13 -72 1
-72 22 0 13 53 3 58 -11z m102 -43 c0 -2 -12 -14 -27 -28 l-28 -24 24 28 c23
25 31 32 31 24z"/>
<path d="M1363 1018 c-32 -37 -34 -45 -19 -81 29 -70 115 -92 156 -40 61 78
-71 194 -137 121z"/>
<path d="M3653 945 c-3 -9 -3 -18 0 -22 10 -10 37 6 37 22 0 20 -29 20 -37 0z"/>
</g>
</svg>