<?xml version="1.0" standalone="no"?>
<!DOCTYPE svg PUBLIC "-//W3C//DTD SVG 20010904//EN"
 "http://www.w3.org/TR/2001/REC-SVG-20010904/DTD/svg10.dtd">
<svg version="1.0" xmlns="http://www.w3.org/2000/svg"
 width="512.000000pt" height="512.000000pt" viewBox="0 0 512.000000 512.000000"
 preserveAspectRatio="xMidYMid meet">
<metadata>
Created by potrace 1.16, written by Peter Selinger 2001-2019
</metadata>
<g transform="translate(0.000000,512.000000) scale(0.100000,-0.100000)"
fill="#000000" stroke="none">
<path d="M2360 4819 c-71 -14 -167 -67 -224 -123 -61 -61 -129 -185 -152 -277
-17 -70 -29 -92 -85 -159 -76 -92 -108 -197 -109 -355 l-1 -90 -64 70 c-98
106 -114 132 -130 221 -13 66 -23 88 -60 136 -25 32 -45 62 -45 66 0 5 -9 17
-19 26 -19 18 -41 15 -41 -6 0 -5 -9 -21 -20 -35 -30 -38 -27 -123 6 -193 15
-30 32 -79 39 -107 l12 -53 -61 36 c-170 97 -239 128 -297 128 -122 2 -144
-87 -63 -247 l34 -67 -37 24 c-21 13 -61 27 -88 31 -43 5 -54 3 -68 -13 -24
-26 -15 -42 45 -77 37 -22 55 -39 62 -63 6 -18 25 -44 41 -57 25 -21 27 -24
10 -23 -67 5 -105 -14 -105 -52 0 -33 50 -79 129 -120 42 -22 92 -53 111 -69
l35 -30 -22 -40 c-30 -53 -29 -92 3 -130 l26 -31 -40 -44 c-24 -26 -46 -62
-53 -88 -16 -59 -5 -191 25 -308 l25 -95 -6 -350 -6 -350 -53 -110 c-59 -123
-145 -371 -169 -485 -9 -41 -24 -152 -35 -246 -17 -161 -21 -177 -63 -275 -59
-137 -77 -200 -77 -273 1 -110 58 -188 162 -223 50 -16 148 -18 1488 -21 1475
-3 1783 2 1856 33 95 40 102 68 64 289 -32 194 -45 236 -106 358 -37 73 -44
97 -44 145 0 75 -24 230 -51 335 -16 64 -19 98 -15 147 11 110 21 105 51 -25
16 -65 32 -123 36 -129 5 -5 9 24 9 65 0 53 -12 123 -40 239 -32 135 -41 193
-50 335 -25 413 -31 502 -50 691 -11 110 -29 297 -40 415 -13 138 -26 222 -35
236 -8 12 -36 30 -62 40 -26 9 -55 24 -63 32 -8 8 -9 12 -2 8 39 -22 21 54
-26 107 -8 9 -10 17 -4 17 12 0 63 -64 77 -97 l10 -22 40 28 c24 16 41 36 43
51 2 14 10 33 18 44 9 13 10 24 3 38 -7 14 -6 20 6 24 9 4 21 2 28 -5 19 -19
56 -12 86 17 47 45 101 113 101 128 0 7 -13 29 -30 47 -16 19 -30 39 -30 44 0
5 -15 23 -32 40 -34 32 -118 60 -141 47 -38 -22 -57 -50 -57 -84 0 -34 -14
-60 -32 -60 -4 0 -8 7 -8 15 0 9 -7 18 -15 21 -9 4 -15 19 -15 37 0 18 -9 40
-22 54 -20 21 -20 24 -5 41 10 10 17 26 17 36 0 10 7 24 15 33 12 12 14 26 9
62 -7 50 -28 81 -54 81 -10 0 -23 7 -30 15 -9 11 -28 15 -59 14 -25 -1 -54 1
-63 5 -29 13 -78 -47 -78 -94 0 -21 -7 -43 -15 -50 -18 -15 -19 -43 -4 -72 7
-13 8 -41 4 -77 l-7 -56 -19 35 c-10 19 -18 52 -19 72 0 28 -6 41 -24 53 -13
9 -26 28 -29 43 -7 34 3 92 15 92 20 0 80 55 92 84 11 26 11 35 0 53 -17 27
-9 48 30 84 27 24 29 31 19 47 -9 15 -9 27 0 51 9 26 8 33 -8 51 -10 11 -26
19 -36 18 -9 -2 -26 5 -36 15 -16 14 -19 27 -15 66 5 51 -10 91 -33 91 -9 0
-13 10 -12 28 2 25 0 27 -33 24 -19 -1 -38 -9 -43 -17 -4 -8 -19 -15 -32 -15
-13 0 -27 -6 -32 -12 -18 -30 -29 -76 -22 -101 9 -34 -6 -46 -54 -42 -66 6
-84 -30 -86 -176 -1 -49 3 -69 14 -79 14 -11 11 -16 -24 -36 -42 -26 -58 -62
-41 -94 8 -15 6 -33 -6 -72 -9 -29 -20 -57 -24 -61 -4 -4 -12 25 -19 65 -24
133 -62 262 -101 344 -91 188 -298 306 -534 303 -50 -1 -111 -5 -136 -10z
m296 -49 c80 -21 168 -66 206 -107 30 -32 12 -29 -82 13 -213 93 -425 82 -577
-33 -50 -37 -39 -10 15 37 116 103 266 134 438 90z m844 -19 c0 -10 -7 -24
-15 -31 -20 -17 -42 -99 -53 -205 -6 -52 -19 -109 -32 -135 l-21 -45 6 80 c3
44 16 103 27 132 18 43 19 58 10 95 -14 59 -5 110 18 103 9 -3 23 1 30 10 17
20 30 19 30 -4z m40 -39 c0 -8 -9 -16 -20 -19 -23 -6 -27 -23 -5 -23 17 0 20
-16 4 -25 -6 -4 -24 -25 -40 -48 l-29 -40 6 34 c4 19 15 57 26 86 14 39 24 51
38 50 11 -1 20 -7 20 -15z m-925 -37 c147 -31 303 -134 325 -214 5 -20 10 -63
10 -96 1 -75 13 -130 50 -225 16 -41 36 -117 45 -168 19 -113 18 -147 -1 -68
-17 71 -55 126 -88 126 -15 0 -27 9 -34 25 -15 32 -57 43 -81 21 -10 -9 -27
-16 -38 -16 -11 0 -29 -10 -40 -22 -23 -25 -53 -126 -53 -179 0 -51 -10 -28
-25 56 -17 100 -7 137 46 170 44 28 48 45 18 74 -20 18 -20 21 -5 42 46 66
-27 135 -111 106 -20 -7 -23 -5 -23 21 0 42 -31 67 -67 55 -15 -6 -45 -8 -66
-5 -73 9 -102 -57 -51 -118 29 -34 29 -35 -1 -245 l-12 -90 -2 82 c-1 76 -3
84 -34 125 -39 51 -77 61 -111 29 -15 -14 -26 -17 -36 -11 -8 5 -27 10 -41 10
-19 0 -29 8 -40 33 -12 29 -18 32 -54 31 -22 0 -49 -4 -59 -9 -36 -16 -12 78
45 179 111 194 173 251 313 281 81 18 137 18 221 0z m781 -92 c-11 -11 -19 6
-11 24 8 17 8 17 12 0 3 -10 2 -21 -1 -24z m-75 -79 c10 -48 19 -113 19 -143
l0 -54 -31 47 c-28 41 -32 56 -33 124 -1 68 10 130 21 118 3 -2 13 -44 24 -92z
m49 14 c0 -45 -2 -79 -5 -76 -3 2 -8 39 -13 81 -6 61 -5 77 5 77 10 0 13 -21
13 -82z m194 67 c-4 -8 -9 -13 -13 -11 -4 3 -12 -8 -18 -25 -9 -24 -9 -29 3
-29 8 0 17 6 19 13 6 14 62 20 70 7 3 -5 -3 -20 -15 -32 -17 -19 -19 -24 -7
-33 12 -9 10 -16 -12 -43 -15 -17 -36 -32 -47 -32 -46 -1 -104 -39 -136 -90
-33 -54 -48 -68 -24 -22 25 46 73 114 79 110 8 -4 107 91 107 104 0 17 -64
-28 -89 -64 -20 -28 -22 -30 -16 -8 4 14 18 45 30 70 13 25 26 55 30 67 3 12
14 24 23 26 9 3 18 5 19 6 1 0 0 -6 -3 -14z m-64 -39 c0 -11 -19 -15 -25 -6
-3 5 1 10 9 10 9 0 16 -2 16 -4z m66 -193 c0 -10 -5 -21 -10 -25 -6 -4 -4 -13
3 -22 12 -14 10 -20 -11 -39 -24 -22 -26 -23 -37 -5 -16 25 -48 22 -76 -7 -13
-15 -26 -22 -29 -16 -9 14 61 89 103 111 47 23 59 24 57 3z m-1056 -92 c19
-60 20 -75 11 -126 -12 -65 -9 -78 10 -43 9 15 14 61 14 130 0 72 4 111 13
119 15 16 15 19 16 -126 1 -107 4 -126 28 -175 14 -30 30 -78 36 -105 6 -28
34 -116 62 -195 28 -80 62 -190 75 -245 13 -55 26 -107 29 -115 5 -12 -3 -14
-46 -11 -68 4 -120 -12 -159 -51 l-31 -32 20 40 c31 60 75 110 94 106 38 -8
31 44 -8 54 -13 3 -24 11 -24 18 0 13 -46 36 -71 36 -26 0 -45 39 -85 172 -43
143 -46 205 -18 386 19 120 17 132 -31 198 -14 20 -14 23 1 38 23 24 38 8 64
-73z m547 -6 c55 -130 93 -411 93 -684 l0 -153 -22 6 c-13 3 -26 6 -30 6 -5 0
-8 102 -8 228 0 251 -6 309 -50 490 -17 68 -30 140 -30 160 0 33 1 35 13 17 7
-11 23 -42 34 -70z m217 38 c-6 -35 -42 -143 -48 -143 -1 0 -2 33 -3 74 -2 68
0 73 18 69 14 -4 19 0 19 16 0 11 5 21 10 21 7 0 8 -14 4 -37z m53 -58 c-3
-16 -9 -39 -13 -50 -7 -18 -6 -18 9 -6 13 10 20 11 31 2 17 -14 60 0 95 32
l23 22 -8 -25 c-4 -14 -8 -35 -9 -47 0 -18 -6 -21 -45 -21 -25 1 -48 5 -51 10
-9 13 -109 -102 -110 -126 -1 -12 -2 -28 -3 -36 -1 -8 2 -22 6 -31 4 -9 2 -30
-6 -45 -7 -16 -18 -40 -24 -54 l-11 -25 -1 30 c-2 28 -3 26 -16 -15 l-14 -45
4 85 c3 61 12 105 31 155 14 39 40 109 57 157 26 73 34 86 46 76 9 -8 12 -23
9 -43z m-1867 20 c6 -16 16 -25 27 -23 10 2 28 -13 46 -38 25 -36 30 -52 31
-110 1 -48 7 -77 19 -94 10 -14 13 -26 7 -28 -16 -6 -12 -22 5 -22 8 0 15 5
15 12 0 7 11 -3 24 -22 19 -28 21 -37 10 -43 -23 -13 -17 -29 6 -17 17 9 25 6
48 -22 14 -18 41 -47 59 -64 31 -29 33 -34 33 -103 l0 -73 -42 34 c-168 131
-248 243 -256 358 -4 49 -1 59 16 72 20 14 20 16 6 66 -17 57 -29 69 -22 23 3
-22 1 -28 -10 -23 -8 3 -20 -2 -27 -12 -11 -15 -14 -13 -24 15 -15 42 -14 112
1 127 16 16 17 16 28 -13z m1241 4 c19 -10 18 -11 -12 -32 -40 -27 -67 -71
-78 -129 -8 -40 -9 -37 -10 35 -1 74 1 80 28 108 32 32 42 34 72 18z m652 -44
c-3 -9 -8 -14 -10 -11 -3 3 -2 9 2 15 9 16 15 13 8 -4z m-1407 -12 c-26 -90
-51 -549 -41 -775 l7 -157 -29 -27 c-15 -14 -36 -30 -47 -36 -17 -9 -18 3 -13
364 6 458 16 527 86 615 28 36 45 43 37 16z m1825 3 c16 14 18 14 29 -6 6 -12
14 -19 17 -16 3 3 14 1 24 -4 16 -9 16 -13 3 -38 -12 -24 -12 -27 1 -30 19 -4
19 -16 0 -32 -8 -7 -14 -20 -13 -29 2 -12 -6 -16 -35 -18 -21 0 -47 -9 -58
-19 -25 -23 -17 -30 13 -10 33 24 50 21 42 -8 -4 -18 0 -28 15 -37 19 -12 19
-15 4 -31 -20 -22 -5 -43 37 -52 17 -3 30 -10 30 -16 0 -8 -58 -90 -77 -110
-3 -3 2 12 11 34 9 21 13 42 10 47 -11 19 -22 -3 -29 -58 -3 -32 -13 -69 -21
-83 l-15 -25 6 25 c4 14 9 58 12 97 5 62 3 74 -11 79 -11 4 -24 0 -34 -10 -14
-13 -14 -20 -4 -36 16 -26 16 -26 -19 -40 -24 -10 -29 -18 -27 -38 4 -34 22
-38 37 -10 11 21 11 21 7 -9 -6 -33 -52 -113 -67 -113 -4 0 -3 15 2 34 6 22 6
43 -1 61 -22 58 -13 86 49 150 32 33 66 66 75 73 21 17 4 42 -28 42 -36 0
-120 -109 -134 -174 -7 -36 -7 -36 -36 -21 -37 19 -38 19 -34 -7 2 -15 11 -24
26 -26 12 -2 22 -7 22 -11 0 -11 -46 -52 -52 -46 -3 3 -15 -18 -28 -47 -12
-29 -24 -48 -27 -41 -2 6 4 31 15 54 15 32 17 50 11 78 -6 29 -4 40 11 56 10
11 24 34 30 50 11 29 12 29 26 10 15 -20 16 -20 39 8 14 15 29 44 35 65 5 20
19 51 31 67 19 28 89 171 89 182 0 18 -33 -28 -54 -73 -14 -30 -35 -68 -46
-84 -12 -16 -30 -53 -40 -82 -10 -29 -19 -48 -19 -42 -1 18 37 162 49 185 11
19 10 20 -10 14 -15 -5 -20 -4 -16 4 4 6 13 11 21 11 22 0 25 14 13 48 -10 26
-9 34 6 51 16 17 20 18 44 5 23 -11 29 -11 43 2z m-1648 -72 c5 -32 18 -59 36
-79 38 -40 51 -67 51 -105 0 -41 27 -91 90 -170 49 -60 84 -111 138 -201 l22
-37 -37 -4 c-34 -4 -43 0 -83 39 -25 24 -37 40 -27 37 26 -9 21 8 -18 62 -19
27 -52 81 -74 119 -22 39 -58 94 -80 124 -32 42 -41 62 -41 93 0 33 -7 48 -39
83 -22 24 -42 40 -45 37 -3 -3 -6 -1 -6 5 0 17 47 43 64 37 9 -4 16 -1 16 6 0
6 6 10 12 8 7 -3 16 -27 21 -54z m577 41 c0 -8 -7 -15 -16 -15 -14 0 -14 3 -4
15 7 8 14 15 16 15 2 0 4 -7 4 -15z m-395 -45 c4 -6 15 -8 26 -5 14 5 19 2 19
-14 0 -11 5 -23 11 -26 5 -4 8 -19 4 -34 -6 -30 12 -127 49 -259 14 -48 28
-105 31 -127 6 -38 5 -37 -32 30 -53 98 -78 130 -119 156 -39 24 -64 70 -64
119 0 35 -14 67 -41 93 -27 26 -25 59 4 55 15 -2 22 -10 23 -26 1 -13 10 -33
22 -44 23 -23 24 -21 37 55 6 36 18 47 30 27z m408 3 c3 -5 -11 -18 -29 -30
-25 -16 -34 -18 -34 -8 0 29 51 59 63 38z m-671 -75 c37 -35 37 -72 1 -90 -17
-8 -32 -25 -38 -45 -5 -18 -15 -33 -22 -33 -8 0 -18 -10 -24 -22 -9 -22 -9
-22 -5 2 3 14 10 63 16 110 6 47 13 98 16 114 6 27 7 28 17 10 6 -10 23 -31
39 -46z m1329 5 c-8 -15 -10 -15 -11 -2 0 17 10 32 18 25 2 -3 -1 -13 -7 -23z
m-2195 -12 c30 -11 106 -49 169 -85 63 -36 118 -66 123 -66 4 0 16 -16 25 -35
9 -19 15 -35 12 -35 -2 0 -32 16 -65 36 -34 20 -64 33 -67 30 -9 -9 63 -73
117 -103 39 -22 52 -36 60 -63 6 -23 6 -36 0 -38 -6 -2 -6 -11 1 -23 9 -18 7
-19 -18 -14 l-28 6 24 -20 c13 -12 29 -21 36 -21 17 0 25 -22 31 -94 7 -74 30
-170 50 -208 13 -26 13 -28 -4 -28 -11 0 -31 9 -45 20 -14 11 -30 20 -36 20
-9 0 -9 -5 -1 -20 9 -16 8 -20 -6 -20 -24 0 -170 147 -237 237 -122 167 -231
329 -253 377 -31 67 -32 129 -2 150 29 21 47 20 114 -3z m1718 -26 c9 -14 16
-31 15 -38 -4 -30 3 -37 34 -37 30 0 34 -4 49 -47 24 -68 31 -176 18 -258 -6
-38 -13 -88 -16 -110 -9 -64 -13 -71 -27 -50 -11 14 -13 5 -14 -62 -1 -108
-17 -138 -28 -52 -16 117 -12 152 25 203 33 45 36 71 5 46 -13 -11 -15 -8 -15
17 0 16 -5 54 -11 84 -8 42 -8 67 4 117 8 35 11 65 5 68 -10 6 -38 -56 -38
-86 0 -12 -4 -19 -9 -16 -4 3 -11 40 -13 81 -3 43 -11 81 -18 88 -10 10 -11 4
-7 -26 4 -28 3 -38 -6 -34 -62 23 -81 13 -25 -13 18 -8 34 -22 36 -30 4 -12 1
-11 -15 3 -32 28 -50 20 -21 -10 37 -41 87 -146 95 -198 4 -32 0 -65 -12 -106
-16 -52 -17 -68 -7 -118 13 -62 15 -87 7 -79 -3 3 -17 57 -30 121 -16 76 -34
133 -54 169 -17 30 -40 89 -51 132 -16 65 -18 86 -9 129 6 29 15 56 20 62 5 5
9 18 9 29 0 18 1 18 18 3 26 -23 31 -21 43 13 13 37 22 38 43 5z m419 18 c4
-3 -2 -13 -14 -21 -18 -12 -19 -16 -6 -31 21 -23 31 -61 17 -61 -34 0 -52 60
-30 101 11 20 22 24 33 12z m94 -20 c-3 -16 -8 -39 -12 -53 -6 -21 0 -17 43
24 33 32 56 47 66 43 27 -10 18 -24 -28 -46 -24 -12 -52 -31 -62 -43 -19 -21
-19 -21 6 -8 14 7 36 21 49 32 23 17 25 17 43 2 10 -10 18 -25 18 -35 0 -9 6
-19 13 -22 9 -3 9 -7 0 -18 -6 -8 -16 -30 -21 -49 -10 -33 -10 -33 -11 -7 -1
31 -34 69 -54 61 -8 -3 -19 -16 -26 -30 -7 -16 -7 -23 -1 -19 6 4 17 1 25 -5
11 -9 12 -16 3 -30 -9 -14 -9 -22 0 -33 7 -8 10 -22 6 -31 -3 -9 -1 -23 6 -31
18 -21 8 -58 -20 -72 -22 -11 -25 -10 -28 8 -2 11 2 27 8 35 9 9 9 14 2 14
-18 0 -32 -36 -32 -80 l0 -41 -35 35 c-29 29 -35 43 -35 78 0 39 -13 44 -22 8
-2 -11 -11 -14 -30 -10 l-27 5 21 47 c15 36 25 47 40 45 28 -3 46 49 47 136 1
50 5 69 16 73 8 4 15 15 15 25 0 10 5 19 11 19 7 0 9 -11 6 -27z m-439 -42 c3
-8 -1 -12 -9 -9 -7 2 -15 10 -17 17 -3 8 1 12 9 9 7 -2 15 -10 17 -17z m1072
-45 c0 -8 -7 -16 -15 -20 -15 -5 -21 14 -8 27 11 12 23 8 23 -7z m-1925 -26
c16 -16 26 -32 23 -36 -11 -10 -89 17 -95 33 -6 15 12 33 33 33 5 0 23 -13 39
-30z m1976 9 c-2 -8 -6 -22 -9 -32 -4 -16 0 -18 31 -13 25 4 37 2 41 -9 3 -8
13 -15 22 -15 11 0 14 -5 10 -16 -4 -9 -1 -23 5 -31 21 -24 1 -27 -56 -8 -49
17 -61 18 -117 6 -81 -16 -137 -44 -195 -94 -45 -39 -45 -32 2 22 11 12 46 36
77 52 51 26 168 132 168 152 0 5 6 7 13 4 6 -2 10 -11 8 -18z m-855 -141 c-35
-82 -35 -83 -35 -41 -1 23 3 44 9 48 5 3 19 34 32 68 19 51 24 57 26 35 2 -14
-13 -64 -32 -110z m105 85 c-8 -15 -10 -15 -11 -2 0 17 10 32 18 25 2 -3 -1
-13 -7 -23z m-1167 -38 c14 -10 26 -18 26 -19 0 -1 8 -24 19 -53 l18 -51 -33
20 c-24 14 -42 18 -64 13 -23 -5 -30 -3 -30 8 0 8 -7 21 -16 28 -14 12 -20 9
-40 -16 l-24 -30 -26 26 -26 27 20 20 c18 18 19 22 6 33 -10 8 -11 15 -4 19
18 11 147 -8 174 -25z m-1190 -60 c11 -17 13 -24 4 -18 -7 4 -30 19 -50 32
-21 12 -35 27 -32 32 8 13 59 -16 78 -46z m24 33 c14 -14 16 -28 2 -28 -5 0
-14 9 -20 20 -12 22 -1 27 18 8z m2059 -10 c-3 -8 -6 -5 -6 6 -1 11 2 17 5 13
3 -3 4 -12 1 -19z m1061 -8 c35 -22 44 -45 12 -35 -21 7 -28 -9 -9 -21 7 -4 8
-9 0 -17 -7 -7 -21 0 -46 22 -24 21 -46 31 -68 31 -49 0 -128 -42 -216 -115
-44 -37 -85 -63 -91 -60 -13 8 16 45 35 45 6 0 34 20 63 44 76 65 111 84 198
105 43 11 81 20 84 20 3 1 20 -8 38 -19z m-3020 -27 c2 -7 -4 -13 -14 -13 -14
0 -8 -10 23 -42 22 -24 64 -78 92 -121 l52 -78 -52 28 c-54 29 -189 158 -189
181 0 7 11 24 25 38 26 26 55 29 63 7z m898 -48 c16 -8 37 -15 47 -15 28 0 53
-17 77 -50 l21 -30 -27 -68 c-19 -45 -30 -93 -33 -147 l-6 -80 -17 50 c-9 28
-22 82 -28 120 -6 39 -24 96 -40 129 -26 50 -39 106 -26 106 2 0 17 -7 32 -15z
m224 -30 c22 -22 30 -39 26 -50 -5 -15 -9 -14 -25 6 -19 23 -19 24 -40 5 -19
-17 -21 -18 -21 -2 0 10 5 27 11 38 10 19 9 20 -15 16 -31 -6 -44 7 -20 20 25
14 48 5 84 -33z m-520 -77 c0 -4 5 -8 12 -8 27 0 58 -43 57 -79 -1 -36 -1 -36
-11 -8 -5 15 -14 27 -19 27 -5 0 2 -22 17 -49 14 -28 24 -60 22 -73 -3 -18
-11 -9 -35 45 -34 72 -48 85 -41 37 5 -34 -1 -36 -45 -14 -32 17 -32 17 -14
-4 10 -11 31 -26 47 -32 22 -9 34 -26 50 -67 26 -68 23 -81 -13 -53 -36 28
-34 19 4 -25 33 -37 26 -44 -21 -20 -48 25 -110 199 -82 227 9 9 8 15 0 26 -7
8 -20 44 -29 80 -10 37 -21 76 -25 86 -5 12 18 -1 59 -34 37 -30 67 -57 67
-62z m2295 102 c-3 -5 -18 -10 -33 -9 -24 0 -25 1 -7 9 28 12 47 12 40 0z
m-414 -43 c-7 -19 -21 -43 -33 -53 -20 -19 -21 -19 -13 6 10 33 46 92 52 86 3
-2 0 -20 -6 -39z m368 14 c20 -16 22 -20 10 -39 -10 -16 -10 -23 0 -36 8 -10
9 -21 3 -31 -8 -15 -12 -14 -38 8 -16 13 -38 29 -49 35 -19 11 -18 11 7 12 15
0 30 5 33 10 8 13 -36 13 -72 -1 -15 -5 -47 -26 -70 -45 -24 -20 -43 -31 -43
-26 0 6 28 32 63 60 100 79 115 84 156 53z m-659 -8 c0 -4 -10 -27 -21 -51
-16 -32 -24 -40 -30 -30 -13 20 -11 33 12 62 19 25 39 34 39 19z m-1325 -116
c9 -35 15 -71 14 -81 -4 -15 -6 -15 -26 -1 -20 14 -23 25 -23 86 0 39 4 68 9
65 5 -3 16 -34 26 -69z m1237 3 c-3 -46 11 -52 51 -20 14 11 30 20 36 20 6 0
11 9 11 21 0 15 4 19 16 15 9 -3 25 -6 37 -6 20 0 20 0 -3 -25 -29 -31 -21
-42 14 -19 32 20 42 14 25 -14 -10 -17 -10 -23 1 -36 15 -19 17 -16 -38 -46
-23 -13 -56 -44 -73 -69 -17 -25 -28 -37 -25 -26 2 11 8 40 11 65 4 25 13 60
21 78 7 17 9 32 5 32 -15 0 -43 -38 -56 -76 l-12 -37 -7 37 c-4 20 -14 40 -22
43 -10 4 -14 22 -14 66 0 47 3 58 12 49 7 -7 11 -30 10 -52z m258 18 c0 -49
-5 -47 -13 5 -3 20 -2 37 4 37 5 0 9 -19 9 -42z m-1182 18 c32 -16 78 -64 70
-71 -3 -3 -26 -1 -52 5 -38 8 -51 7 -71 -6 -16 -11 -25 -12 -25 -5 0 12 42 91
48 91 2 0 15 -6 30 -14z m-1163 -37 c17 -11 59 -35 95 -54 36 -18 83 -49 105
-69 l40 -35 -41 -1 c-22 0 -49 -6 -59 -14 -17 -12 -23 -10 -55 14 -19 16 -73
49 -120 74 -80 44 -127 82 -115 94 3 3 15 -4 28 -15 31 -29 62 -43 89 -42 19
1 18 3 -12 16 -61 26 -68 37 -29 44 19 4 36 7 39 8 3 0 19 -8 35 -20z m2560
-2 c20 -16 28 -35 32 -69 7 -57 -2 -87 -19 -70 -16 16 -29 15 -22 -1 2 -7 -16
-42 -41 -77 -24 -36 -45 -68 -45 -72 0 -20 33 10 67 60 51 77 58 84 39 38 -9
-22 -29 -56 -44 -75 -47 -63 -189 -205 -239 -241 l-48 -34 55 60 c69 73 125
151 145 198 8 20 14 36 11 36 -2 0 -28 -33 -59 -73 -98 -131 -267 -297 -301
-297 -3 0 20 23 50 52 61 57 65 78 6 31 -43 -34 -114 -75 -120 -68 -9 9 53
124 121 223 40 59 89 136 109 172 40 72 136 183 183 211 41 26 88 24 120 -4z
m-1495 1 c-1 -18 -59 -86 -60 -70 0 25 32 82 46 82 8 0 14 -6 14 -12z m324
-56 c-3 -20 -12 -57 -19 -82 -8 -25 -19 -82 -24 -128 -6 -46 -15 -91 -21 -100
-9 -14 -10 -13 -5 8 24 94 12 234 -21 247 -24 9 -27 -2 -15 -56 12 -56 0 -141
-23 -160 -11 -9 -15 5 -20 69 -10 109 -26 113 -26 6 l0 -86 -35 0 c-43 0 -50
21 -41 127 4 47 2 82 -5 95 -16 30 10 53 48 43 36 -10 64 -7 84 11 19 17 41
18 57 2 8 -8 16 -5 31 13 11 13 20 28 21 32 0 5 5 5 10 2 6 -4 8 -22 4 -43z
m1316 13 c0 -8 -4 -15 -10 -15 -5 0 -10 7 -10 15 0 8 5 15 10 15 6 0 10 -7 10
-15z m-1240 -21 c0 -2 -16 -32 -35 -67 -19 -35 -35 -75 -36 -88 0 -13 -3 -18
-6 -11 -8 19 16 133 33 159 8 13 20 20 29 17 8 -4 15 -8 15 -10z m270 -90 c13
-47 14 -61 4 -53 -14 11 -35 96 -33 132 1 19 2 19 6 3 3 -10 13 -47 23 -82z
m-650 76 c18 -11 11 -18 -40 -41 -46 -21 -52 -9 -14 26 30 28 33 29 54 15z
m800 -87 c-9 -14 -10 -10 -6 22 3 22 7 49 8 60 1 11 3 1 5 -22 2 -24 -1 -51
-7 -60z m800 22 c7 -30 11 -57 9 -59 -2 -3 -15 3 -28 13 -21 16 -23 23 -17 65
4 25 11 44 15 42 4 -3 14 -30 21 -61z m-1217 -7 c-14 -24 -37 -74 -50 -113
-20 -61 -23 -64 -17 -25 8 57 38 136 60 161 31 34 35 20 7 -23z m-374 -20 c-1
-24 -4 -56 -8 -71 l-6 -29 -27 22 c-41 32 -38 83 7 108 32 18 35 15 34 -30z
m-218 -1 c33 -46 32 -63 -5 -74 l-34 -10 1 57 c0 61 9 67 38 27z m1138 12 c30
-11 31 -13 31 -71 0 -76 -38 -263 -82 -406 -22 -71 -17 -20 8 82 14 60 24 110
21 112 -2 2 -23 -56 -48 -129 l-44 -132 -58 -29 c-32 -16 -60 -27 -62 -24 -3
2 9 51 25 108 16 57 28 106 25 108 -2 3 -9 -6 -14 -19 -49 -128 -75 -186 -86
-198 -12 -12 -13 -11 -8 10 24 101 49 185 77 258 18 47 41 113 50 146 24 80
60 149 92 174 31 24 31 24 73 10z m172 -50 c-17 -23 -31 -39 -31 -35 0 11 53
87 57 82 3 -2 -9 -23 -26 -47z m640 41 c24 -14 24 -36 0 -49 -15 -9 -20 -7
-25 12 -12 47 -8 54 25 37z m-733 -83 c3 -40 -2 -70 -18 -116 -13 -34 -25 -59
-27 -57 -3 2 0 30 7 60 6 31 12 86 12 121 2 79 19 73 26 -8z m566 4 c16 -28
17 -35 5 -46 -15 -14 -132 -65 -137 -60 -7 7 93 144 103 141 5 -1 18 -17 29
-35z m-2331 -2 l38 -32 -27 -18 c-36 -23 -60 -53 -84 -104 l-20 -40 0 40 c-1
80 -11 115 -36 121 -30 8 -31 24 -1 24 12 0 28 9 35 20 18 29 52 25 95 -11z
m1367 13 c48 -24 80 -75 80 -128 0 -36 -6 -51 -36 -84 -20 -22 -38 -39 -41
-37 -2 2 4 20 12 40 8 20 15 49 14 64 0 25 -1 26 -9 8 -5 -11 -11 -31 -14 -45
-3 -14 -11 -33 -18 -43 -12 -15 -13 -10 -13 40 0 58 -19 123 -36 123 -5 0 -9
-38 -9 -84 0 -47 -4 -88 -10 -91 -5 -3 -10 2 -10 12 0 26 -29 136 -39 146 -9
9 4 -105 18 -150 5 -18 8 -33 6 -33 -2 0 -20 26 -40 58 -35 55 -38 45 -9 -27
17 -42 18 -41 -4 -41 -34 0 -74 57 -86 121 -5 27 -1 46 17 79 42 79 147 113
227 72z m97 -4 c-3 -8 -6 -5 -6 6 -1 11 2 17 5 13 3 -3 4 -12 1 -19z m403 -8
c-6 -12 -14 -20 -17 -17 -2 3 1 14 8 26 7 11 15 18 17 16 2 -2 -2 -13 -8 -25z
m-2039 -41 c42 -33 53 -74 23 -86 -15 -6 -15 -7 -2 -17 9 -7 23 -40 32 -74 17
-69 46 -130 84 -181 24 -33 25 -34 7 -47 -29 -21 -89 -18 -111 7 -17 19 -18
21 -1 30 24 14 21 45 -14 156 -18 54 -32 103 -32 110 0 7 -4 10 -8 7 -10 -6
-59 58 -59 76 0 13 28 50 38 50 2 0 22 -14 43 -31z m1226 -1 c-3 -7 -5 -2 -5
12 0 14 2 19 5 13 2 -7 2 -19 0 -25z m1463 -98 c0 -77 13 -233 37 -428 34
-289 37 -324 36 -597 0 -265 -2 -297 -22 -368 -27 -97 -27 -145 0 -208 l21
-49 -27 -36 c-43 -56 -342 -370 -370 -388 -24 -16 -25 -16 -25 6 0 12 -13 97
-30 188 -16 91 -34 203 -39 250 l-8 85 -2 -120 c0 -75 7 -170 19 -253 31 -206
32 -199 -47 -271 -75 -69 -140 -95 -268 -105 -187 -16 -746 -36 -1050 -37
-374 -2 -436 5 -545 59 -100 49 -120 102 -120 319 0 172 8 243 52 463 50 255
39 299 -126 470 -56 58 -117 127 -135 154 -49 70 -81 168 -81 246 0 74 -22
202 -52 303 -11 38 -18 70 -16 72 1 1 27 -19 57 -46 l55 -49 -28 -29 c-25 -26
-28 -36 -24 -75 4 -29 17 -61 39 -92 65 -91 101 -103 285 -104 135 0 239 -23
283 -63 29 -28 185 -339 242 -486 5 -13 12 -22 14 -19 14 14 -147 418 -192
484 -20 31 -21 35 -6 29 38 -15 192 -44 285 -54 389 -43 661 41 1077 334 103
72 217 163 145 116 -17 -11 -109 -66 -205 -122 -450 -263 -558 -302 -849 -302
-224 0 -444 38 -472 82 -7 11 -19 16 -33 13 -12 -2 -59 8 -104 22 -45 14 -91
26 -102 26 -30 0 -23 36 11 62 23 17 47 23 97 25 43 1 70 -2 74 -9 6 -9 13 -9
31 0 34 18 235 32 473 32 269 1 449 14 550 40 85 22 422 181 555 263 41 25 78
43 82 39 16 -16 30 -298 25 -512 -7 -288 -36 -459 -122 -709 -42 -125 -30
-123 34 5 48 97 80 204 112 374 22 114 24 151 23 420 0 162 -5 331 -11 375 -8
59 -8 83 1 92 12 13 375 202 389 203 4 0 7 -54 7 -120z m-1812 85 c16 -10 34
-26 41 -38 11 -17 10 -21 -5 -30 -38 -19 -151 -144 -185 -202 -20 -33 -47 -67
-62 -75 -25 -14 -30 -13 -64 5 -67 37 -93 134 -57 211 22 46 105 119 157 138
51 19 135 14 175 -9z m-483 -19 c38 -16 75 -68 75 -105 0 -23 -1 -23 -18 -8
-28 25 -34 20 -17 -13 8 -16 15 -48 15 -72 0 -70 -48 -118 -65 -65 l-7 22 -6
-23 c-7 -23 -8 -23 -23 -5 -9 10 -24 32 -33 48 l-17 30 4 -42 c5 -39 3 -42
-22 -45 -18 -2 -33 4 -49 22 l-22 25 10 -29 c13 -36 7 -43 -24 -27 -53 29 -80
122 -55 188 34 90 159 138 254 99z m745 -23 c-11 -17 -11 -17 -6 0 3 10 6 24
7 30 0 9 2 9 5 0 3 -7 0 -20 -6 -30z m77 15 c-3 -8 -6 -5 -6 6 -1 11 2 17 5
13 3 -3 4 -12 1 -19z m-72 -89 c36 -21 56 -18 98 19 16 14 17 13 17 -11 0 -22
-7 -28 -40 -38 l-39 -12 18 -26 c63 -90 46 -205 -43 -290 -20 -19 -36 -30 -36
-25 0 6 9 19 20 29 50 45 85 140 73 198 -7 33 -23 18 -23 -21 0 -34 -46 -124
-77 -153 l-26 -24 25 35 c27 38 58 111 58 137 0 9 -13 -10 -30 -43 -16 -32
-47 -79 -68 -103 l-39 -45 -129 -12 c-71 -7 -130 -11 -133 -8 -2 2 3 12 12 22
30 33 18 37 -15 4 -22 -20 -48 -33 -76 -38 l-43 -7 20 53 c47 124 184 309 265
359 69 43 138 43 211 0z m-1168 -126 c6 -49 7 -92 3 -96 -13 -14 -70 65 -70
96 0 28 33 87 49 87 5 0 13 -39 18 -87z m1529 -47 c38 -38 44 -82 20 -141 -17
-39 -35 -51 -97 -60 -45 -7 -46 -6 -67 29 -12 20 -32 38 -46 42 -23 6 -26 11
-26 54 0 42 4 52 35 79 31 27 43 31 91 31 50 0 59 -3 90 -34z m-1151 -70 c25
-18 7 -42 -38 -49 -18 -3 -42 -8 -54 -12 -20 -6 -23 -4 -23 22 0 21 7 33 23
41 31 15 70 14 92 -2z m103 -8 c22 -22 13 -38 -21 -38 -41 0 -49 7 -36 31 11
22 39 25 57 7z m81 -22 c13 -14 22 -29 20 -35 -6 -15 -69 25 -69 44 0 23 24
18 49 -9z m-329 -20 c0 -2 3 -12 6 -20 4 -11 2 -15 -7 -11 -10 4 -15 -4 -16
-26 -2 -28 -1 -30 15 -18 9 7 25 21 35 31 21 21 61 33 82 24 9 -3 15 -18 15
-41 0 -49 18 -44 22 7 l3 42 70 -1 c40 -1 71 -6 73 -12 2 -6 9 -11 16 -11 17
0 42 -29 51 -58 6 -21 5 -23 -13 -13 -28 15 -61 13 -97 -4 l-30 -15 46 5 c51
6 79 -1 79 -20 0 -10 -10 -12 -34 -8 -18 3 -42 1 -52 -5 -22 -12 -60 9 -49 27
3 7 0 8 -9 5 -9 -3 -16 -9 -16 -13 0 -11 -62 -54 -78 -54 -8 0 -17 -9 -20 -19
-3 -13 -10 -17 -21 -13 -9 4 -35 10 -59 15 -53 9 -62 18 -39 34 22 17 22 22
-2 29 -13 3 -22 -3 -30 -19 -6 -13 -18 -24 -27 -24 -22 0 -81 61 -89 93 -13
48 -1 59 61 56 47 -2 60 1 78 19 19 20 36 28 36 18z m1061 -76 l24 -19 -42 -1
c-23 0 -50 -3 -60 -6 -12 -4 -9 2 10 20 34 31 38 32 68 6z m-1194 -117 c26
-18 51 -63 37 -63 -22 0 -68 38 -89 73 -33 58 -35 96 -1 47 13 -19 37 -45 53
-57z m193 -52 l35 -16 -64 -3 c-78 -4 -91 1 -91 31 0 23 2 24 43 14 23 -5 58
-17 77 -26z m-220 -376 c20 -27 74 -89 118 -137 45 -48 88 -104 97 -124 22
-54 18 -131 -14 -294 -39 -192 -55 -356 -49 -506 3 -68 4 -124 2 -124 -13 0
-221 342 -233 384 -9 31 -9 30 -10 -12 -1 -24 -12 -64 -25 -90 -42 -82 -85
-203 -156 -438 -37 -126 -73 -241 -79 -256 -19 -51 -2 -29 34 42 20 39 69 170
111 292 80 237 112 318 124 318 5 0 24 -21 43 -47 19 -27 89 -115 154 -198
109 -137 125 -153 184 -182 116 -59 194 -66 669 -60 461 6 958 30 1064 52 78
16 130 44 218 117 97 81 331 312 410 406 84 98 75 105 104 -78 l17 -105 -27
-142 c-17 -89 -25 -154 -21 -176 4 -21 38 -76 86 -140 59 -78 86 -124 104
-178 38 -110 32 -145 -28 -175 -30 -16 -83 -16 -732 -4 -726 14 -1501 10
-2128 -10 -388 -12 -442 -8 -489 37 -51 49 -48 90 27 342 14 46 34 159 45 250
26 216 38 289 61 384 21 83 125 372 152 422 l16 30 1 -45 c1 -96 63 -281 95
-284 20 -2 15 108 -10 242 -17 88 -28 186 -31 272 l-5 135 36 -83 c20 -46 47
-120 61 -165 l24 -82 -3 80 c-3 62 -15 114 -55 235 -28 85 -54 180 -58 210
l-6 55 32 -60 c18 -33 49 -82 70 -110z m2908 -1373 c29 -76 66 -231 58 -240
-3 -2 -28 70 -56 160 -29 89 -55 168 -58 173 -3 6 2 4 10 -3 9 -8 30 -48 46
-90z"/>
<path d="M2490 3920 c0 -5 11 -10 24 -10 14 0 28 5 31 10 4 6 -7 10 -24 10
-17 0 -31 -4 -31 -10z"/>
<path d="M2520 3782 c0 -4 13 -13 29 -19 39 -14 88 -108 69 -131 -10 -12 -9
-14 7 -11 11 3 21 14 23 26 4 29 -36 121 -59 133 -21 12 -69 13 -69 2z"/>
<path d="M1675 3800 c-3 -5 -2 -10 4 -10 5 0 13 5 16 10 3 6 2 10 -4 10 -5 0
-13 -4 -16 -10z"/>
<path d="M3770 4095 c-17 -21 -9 -27 13 -10 10 7 14 16 9 19 -5 3 -15 -1 -22
-9z"/>
<path d="M2045 4150 c3 -5 8 -10 11 -10 2 0 4 5 4 10 0 6 -5 10 -11 10 -5 0
-7 -4 -4 -10z"/>
<path d="M2300 4064 c0 -31 25 -155 36 -174 16 -30 17 -17 4 75 -13 84 -18
105 -31 105 -5 0 -9 -3 -9 -6z"/>
<path d="M1312 3845 c-13 -29 -14 -29 -28 -11 -12 18 -14 15 -11 -29 l3 -48
-43 49 c-28 31 -43 42 -43 32 0 -10 18 -36 40 -59 31 -32 45 -40 64 -37 22 5
27 0 41 -40 8 -25 15 -47 15 -49 0 -12 -63 26 -97 60 -24 22 -43 37 -43 33 0
-10 197 -273 211 -282 5 -3 9 1 9 8 0 15 -25 51 -78 117 -43 53 -22 54 25 1
23 -25 45 -40 60 -40 31 0 80 -25 116 -58 17 -16 27 -21 27 -12 0 7 -20 32
-44 56 -24 23 -47 51 -50 62 -4 11 -14 26 -23 34 -15 12 -16 10 -9 -14 6 -25
4 -28 -17 -28 -33 0 -50 23 -77 103 -13 37 -32 75 -41 83 -16 15 -17 18 -3 40
9 12 14 31 12 40 -2 14 -6 11 -16 -11z"/>
<path d="M1420 3748 c0 -24 11 -48 22 -48 5 0 6 10 3 23 -10 30 -25 46 -25 25z"/>
<path d="M1470 3456 c0 -8 5 -18 10 -21 19 -11 10 -25 -16 -25 -36 0 -20 -18
24 -26 20 -4 50 -13 65 -21 16 -8 31 -12 33 -10 5 5 -103 117 -112 117 -2 0
-4 -6 -4 -14z"/>
<path d="M2970 3844 c0 -5 5 -28 10 -52 9 -36 7 -49 -11 -83 -27 -55 -17 -61
16 -10 23 35 26 47 21 85 -4 24 -14 50 -21 56 -8 7 -15 9 -15 4z"/>
<path d="M2800 3802 c0 -11 37 -32 44 -25 8 9 -14 33 -30 33 -8 0 -14 -3 -14
-8z"/>
<path d="M2820 3731 c0 -9 66 -71 76 -71 7 0 -5 20 -25 43 -20 24 -51 41 -51
28z"/>
<path d="M3391 3874 c-19 -24 -27 -44 -17 -44 2 0 16 16 30 35 15 19 23 35 17
35 -5 0 -19 -12 -30 -26z"/>
<path d="M3361 3813 c0 -6 -4 -20 -7 -30 -5 -14 -4 -15 5 -7 7 7 11 20 8 30
-3 11 -5 14 -6 7z"/>
<path d="M3397 3750 c-3 -11 -3 -20 -1 -20 2 0 8 9 14 20 6 11 7 20 2 20 -6 0
-12 -9 -15 -20z"/>
<path d="M4032 3859 c-11 -19 -20 -35 -18 -36 2 -2 29 -1 60 3 46 6 54 9 45
20 -6 8 -20 14 -30 14 -10 0 -22 7 -27 16 -7 13 -12 10 -30 -17z"/>
<path d="M2063 3803 c4 -6 19 -13 34 -16 16 -3 39 -8 53 -12 23 -7 24 -6 9 9
-18 19 -106 36 -96 19z"/>
<path d="M2016 3791 c-3 -5 1 -11 9 -15 8 -3 15 -1 15 4 0 13 -18 22 -24 11z"/>
<path d="M1650 3593 c0 -26 1 -26 14 -8 14 20 12 35 -5 35 -5 0 -9 -12 -9 -27z"/>
<path d="M3570 3523 c0 -5 15 -15 33 -23 17 -7 37 -15 42 -18 6 -2 1 5 -10 16
-22 22 -65 38 -65 25z"/>
<path d="M3480 3424 c0 -8 43 -43 54 -44 5 0 -1 11 -14 25 -22 24 -40 32 -40
19z"/>
<path d="M3420 3300 c27 -21 40 -25 40 -12 0 9 -44 32 -58 32 -4 0 4 -9 18
-20z"/>
<path d="M3360 3200 c0 -5 4 -10 9 -10 6 0 13 5 16 10 3 6 -1 10 -9 10 -9 0
-16 -4 -16 -10z"/>
<path d="M3240 3092 c0 -5 7 -13 16 -16 10 -4 14 -1 12 6 -5 15 -28 23 -28 10z"/>
<path d="M3063 3313 c9 -2 23 -2 30 0 6 3 -1 5 -18 5 -16 0 -22 -2 -12 -5z"/>
<path d="M3011 3276 c2 -2 27 -6 54 -10 36 -5 46 -4 35 3 -13 10 -99 16 -89 7z"/>
<path d="M3015 3160 c28 -12 47 -12 40 0 -3 6 -18 10 -33 9 -24 0 -25 -1 -7
-9z"/>
<path d="M2973 3093 c9 -2 25 -2 35 0 9 3 1 5 -18 5 -19 0 -27 -2 -17 -5z"/>
<path d="M2954 2845 c-10 -8 -14 -15 -8 -15 5 0 19 7 30 15 10 8 14 15 8 15
-5 0 -19 -7 -30 -15z"/>
<path d="M1234 3221 c21 -23 26 -26 26 -11 0 5 -10 15 -22 21 -23 12 -23 12
-4 -10z"/>
<path d="M1694 2348 c-4 -7 -13 -35 -19 -63 l-12 -50 -8 55 -8 55 -8 -50 c-11
-79 -1 -122 62 -251 32 -67 66 -141 76 -165 9 -24 18 -38 20 -32 2 6 -19 73
-48 149 -55 150 -69 241 -51 322 10 43 9 51 -4 30z"/>
<path d="M2875 2207 c-153 -83 -251 -157 -380 -288 -71 -72 -123 -128 -115
-124 45 24 161 113 290 224 80 68 172 145 205 169 33 24 62 46 64 48 10 10 -8
2 -64 -29z"/>
<path d="M2125 3200 c3 -5 11 -10 16 -10 6 0 7 5 4 10 -3 6 -11 10 -16 10 -6
0 -7 -4 -4 -10z"/>
<path d="M2062 3169 c2 -7 10 -15 17 -17 8 -3 12 1 9 9 -2 7 -10 15 -17 17 -8
3 -12 -1 -9 -9z"/>
<path d="M1945 3150 c-3 -5 1 -10 10 -10 9 0 13 5 10 10 -3 6 -8 10 -10 10 -2
0 -7 -4 -10 -10z"/>
<path d="M2010 3090 c13 -23 20 -26 20 -6 0 8 -7 16 -15 20 -13 4 -14 2 -5
-14z"/>
<path d="M1876 3083 c-11 -11 -6 -23 9 -23 8 0 15 4 15 9 0 13 -16 22 -24 14z"/>
<path d="M1850 2996 c0 -15 38 -52 46 -44 3 3 -6 17 -20 31 -15 15 -26 20 -26
13z"/>
<path d="M1502 3142 c-7 -22 -12 -47 -12 -57 0 -17 1 -17 18 -2 10 10 23 17
28 17 5 0 15 13 21 29 9 24 8 30 -6 35 -9 3 -21 8 -27 11 -6 3 -16 -12 -22
-33z"/>
<path d="M2374 3005 c26 -19 42 -19 26 0 -7 8 -20 15 -29 15 -13 -1 -13 -3 3
-15z"/>
<path d="M2275 2940 c3 -5 10 -10 16 -10 5 0 9 5 9 10 0 6 -7 10 -16 10 -8 0
-12 -4 -9 -10z"/>
<path d="M2210 2893 c0 -5 12 -16 25 -26 19 -13 25 -15 25 -4 0 7 -5 18 -12
25 -13 13 -38 16 -38 5z"/>
<path d="M2102 2840 c13 -20 28 -27 28 -12 0 10 -22 32 -32 32 -5 0 -3 -9 4
-20z"/>
<path d="M2680 2920 c0 -5 5 -10 10 -10 6 0 10 5 10 10 0 6 -4 10 -10 10 -5 0
-10 -4 -10 -10z"/>
<path d="M2750 2900 c0 -5 7 -10 15 -10 8 0 15 5 15 10 0 6 -7 10 -15 10 -8 0
-15 -4 -15 -10z"/>
<path d="M2585 2890 c-3 -5 -1 -10 4 -10 6 0 11 5 11 10 0 6 -2 10 -4 10 -3 0
-8 -4 -11 -10z"/>
<path d="M2630 2860 c0 -5 5 -10 11 -10 5 0 7 5 4 10 -3 6 -8 10 -11 10 -2 0
-4 -4 -4 -10z"/>
<path d="M3910 790 c0 -26 30 -52 125 -110 160 -96 195 -105 103 -27 -115 96
-197 157 -213 157 -8 0 -15 -9 -15 -20z"/>
<path d="M1414 671 c-21 -10 -70 -37 -109 -61 -38 -24 -137 -79 -220 -122 -82
-43 -136 -76 -120 -72 77 16 420 168 485 214 56 40 30 70 -36 41z"/>
<path d="M2050 479 c-327 -26 -613 -52 -635 -57 -40 -10 -40 -10 20 -11 82 -1
489 16 785 34 135 9 324 20 420 26 181 11 315 8 700 -16 314 -20 566 -29 559
-21 -14 15 -337 51 -719 81 -300 23 -472 18 -1130 -36z"/>
</g>
</svg>