<?xml version="1.0" standalone="no"?>
<!DOCTYPE svg PUBLIC "-//W3C//DTD SVG 20010904//EN"
 "http://www.w3.org/TR/2001/REC-SVG-20010904/DTD/svg10.dtd">
<svg version="1.0" xmlns="http://www.w3.org/2000/svg"
 width="512.000000pt" height="512.000000pt" viewBox="0 0 512.000000 512.000000"
 preserveAspectRatio="xMidYMid meet">
<metadata>
Created by potrace 1.16, written by Peter Selinger 2001-2019
</metadata>
<g transform="translate(0.000000,512.000000) scale(0.100000,-0.100000)"
fill="#000000" stroke="none">
<path d="M2937 4280 c-133 -10 -222 -22 -381 -52 -88 -16 -118 -18 -155 -9
-25 5 -75 17 -111 25 -86 20 -325 39 -433 35 -78 -4 -88 -6 -116 -33 -19 -18
-34 -47 -42 -79 -14 -59 -6 -164 15 -205 13 -26 10 -52 -40 -333 -30 -167 -70
-396 -88 -509 -19 -113 -51 -293 -71 -400 -68 -366 -75 -448 -86 -990 l-11
-495 -27 -38 c-67 -96 -84 -141 -63 -174 10 -16 743 -263 781 -263 17 0 196
41 398 91 202 49 490 119 638 155 345 83 399 99 436 132 47 42 50 77 34 377
-8 149 -17 329 -20 400 -12 252 -36 571 -51 675 -25 168 -163 694 -295 1120
l-70 228 23 44 c42 80 22 211 -41 272 -35 34 -65 37 -224 26z m177 -41 c29
-13 60 -74 70 -135 8 -44 -9 -99 -36 -121 -8 -7 -72 -17 -144 -23 -71 -5 -158
-17 -194 -26 -50 -12 -91 -14 -181 -9 -89 5 -137 3 -208 -10 -89 -17 -95 -17
-204 4 -74 14 -152 21 -229 21 -65 0 -118 3 -118 8 1 4 7 18 15 32 30 53 12
193 -32 242 l-18 21 150 -7 c133 -6 216 -18 415 -58 49 -10 76 -7 230 20 146
27 251 39 437 51 12 0 33 -4 47 -10z m-1327 -30 c-49 -38 -61 -166 -21 -226
12 -19 13 -24 2 -21 -18 6 -37 64 -37 119 -1 76 32 149 67 149 9 0 5 -8 -11
-21z m78 -134 c0 -46 -5 -79 -12 -86 -10 -10 -13 7 -13 86 0 79 3 97 13 87 7
-8 12 -41 12 -87z m1237 -211 c123 -403 291 -1034 327 -1229 30 -160 49 -351
61 -595 6 -118 15 -305 20 -415 14 -278 13 -447 -2 -468 -9 -11 -122 -43 -368
-102 -195 -46 -473 -113 -617 -148 l-261 -63 10 25 c13 35 13 204 -2 379 -7
79 -10 146 -7 149 8 7 214 -92 254 -123 18 -14 33 -21 33 -16 0 16 -35 41
-113 82 l-76 39 38 30 c22 17 42 31 47 31 4 0 39 -28 78 -62 39 -34 82 -71 95
-82 l25 -21 -23 33 c-13 18 -53 59 -90 91 l-68 58 58 36 c33 21 61 37 63 37 8
0 73 -123 91 -173 10 -26 20 -45 23 -43 9 9 -32 118 -64 172 l-33 54 45 26
c24 14 66 34 94 45 44 17 49 17 43 2 -5 -13 -2 -15 23 -9 16 4 49 7 72 6 24 0
49 3 55 9 8 6 18 5 30 -4 17 -12 16 -16 -14 -64 l-32 -51 -30 40 c-16 23 -32
38 -35 35 -3 -3 9 -23 27 -45 l32 -40 -21 -46 c-37 -85 -20 -70 33 28 79 147
106 182 171 212 31 15 56 31 56 36 0 14 -7 13 -35 -6 -22 -14 -24 -14 -35 6
-10 19 -8 22 19 33 17 6 31 15 31 19 0 7 -33 -3 -68 -21 -9 -4 -29 -11 -44
-15 -27 -6 -27 -5 -16 20 12 25 73 64 103 64 8 0 15 5 15 10 0 14 -12 12 -61
-10 -42 -18 -45 -18 -58 -2 -12 15 -13 14 -7 -10 6 -26 -10 -78 -24 -78 -7 0
-43 38 -55 58 -4 9 3 25 21 43 32 33 41 35 64 14 25 -22 72 -9 95 26 19 27 55
43 39 17 -4 -7 -3 -8 5 -4 13 8 41 -16 41 -36 0 -11 2 -11 9 0 6 10 13 11 34
1 33 -15 33 -20 3 -48 -27 -26 -46 -21 -46 12 0 15 -3 18 -8 9 -5 -7 -16 -10
-28 -6 -18 6 -18 6 1 -9 16 -13 17 -17 6 -31 -12 -14 -10 -15 18 -10 l31 7
-33 -49 c-18 -27 -54 -71 -80 -97 -45 -47 -147 -230 -135 -243 3 -3 30 40 58
95 29 55 66 112 82 128 26 25 24 18 -20 -62 -50 -90 -75 -150 -54 -130 6 6 49
81 95 168 75 139 106 184 205 296 29 33 19 12 -29 -59 -90 -136 -195 -318
-186 -326 3 -3 43 57 90 134 47 76 105 165 130 198 24 33 41 66 39 73 -3 8 0
11 7 7 6 -4 16 4 23 21 7 15 20 40 31 55 29 43 -4 25 -43 -23 -39 -50 -50 -45
-17 8 30 48 69 123 63 123 -2 0 -27 -36 -55 -80 -46 -71 -54 -79 -71 -70 -24
13 -25 15 -2 48 10 15 23 34 27 42 16 28 -26 -12 -45 -42 l-16 -27 -32 21 -32
20 43 51 c24 29 61 75 82 102 l38 50 -59 -60 c-33 -33 -72 -75 -87 -93 -20
-26 -32 -32 -48 -27 -21 7 -21 7 -1 28 35 38 189 297 178 297 -9 0 -143 -206
-172 -262 -13 -27 -26 -48 -28 -48 -3 0 -118 51 -123 54 -1 1 9 30 23 65 34
84 25 89 -11 6 -22 -52 -31 -65 -44 -60 -65 27 -130 45 -161 45 -35 0 -161
-55 -225 -99 l-30 -21 -80 79 c-76 74 -142 128 -175 145 -8 4 1 -7 20 -25 19
-18 76 -72 127 -119 l92 -88 -65 -55 -66 -55 -90 89 c-104 103 -144 121 -48
22 104 -108 123 -131 116 -141 -4 -7 -25 -1 -54 14 -46 24 -46 24 -17 2 16
-13 56 -48 89 -79 l59 -56 -89 43 c-49 24 -102 46 -119 49 -16 3 4 -9 45 -28
147 -66 177 -85 233 -149 30 -35 58 -60 62 -57 3 4 -21 40 -54 82 l-60 75 70
-36 c38 -20 69 -41 69 -47 0 -6 7 -20 15 -31 14 -18 15 -17 9 10 -5 23 -4 28
7 24 8 -3 45 -15 82 -28 72 -23 78 -31 25 -35 -46 -3 -174 -58 -256 -111 l-70
-45 -52 39 c-53 40 -130 87 -130 79 0 -3 35 -31 78 -62 42 -32 79 -59 80 -61
2 -1 -17 -22 -41 -46 l-46 -43 -43 18 c-23 10 -44 19 -45 21 -1 1 -12 175 -23
387 -36 693 -67 934 -206 1618 -35 172 -67 349 -70 392 l-7 79 87 0 c49 0 132
-9 191 -21 102 -21 107 -21 191 -5 68 14 112 16 207 11 98 -6 136 -4 192 10
62 15 234 35 260 30 5 -1 17 -28 27 -61z m47 34 c130 -411 313 -1083 346
-1273 24 -140 43 -370 60 -725 9 -179 20 -398 24 -486 9 -152 4 -225 -16 -245
-4 -4 -9 56 -9 134 -1 78 -6 228 -13 332 -6 105 -16 276 -21 380 -12 215 -34
447 -56 580 -22 133 -142 603 -250 981 -51 182 -94 336 -94 342 0 24 19 11 29
-20z m-1318 -99 c6 -57 28 -193 50 -302 l40 -198 -60 -127 c-98 -211 -140
-349 -196 -655 -23 -129 -32 -210 -15 -142 18 76 115 412 150 520 37 118 126
325 140 325 10 0 51 -252 57 -355 3 -56 -1 -141 -12 -225 -15 -127 -31 -578
-18 -535 3 11 18 128 33 260 20 174 28 221 29 170 0 -38 7 -178 15 -310 8
-132 20 -355 26 -495 6 -143 20 -315 31 -390 35 -241 36 -520 1 -520 -8 0
-216 210 -314 318 -32 34 -63 62 -69 62 -25 0 -130 -32 -228 -70 -58 -22 -107
-38 -109 -35 -3 2 7 20 21 39 15 19 44 67 64 108 l38 73 6 370 c7 382 13 455
53 704 13 80 27 173 30 206 l5 60 -14 -45 c-17 -54 -60 -331 -75 -484 -6 -60
-15 -261 -19 -448 -5 -186 -11 -342 -15 -345 -15 -16 4 753 24 957 6 63 27
205 46 315 19 110 48 288 64 395 24 166 107 641 139 805 10 50 10 50 5 -15 -6
-80 -35 -256 -75 -458 -17 -85 -29 -156 -26 -158 9 -10 91 335 122 520 19 111
35 205 35 210 0 5 3 7 6 4 3 -3 10 -52 15 -109z m-64 79 c-3 -8 -6 -5 -6 6 -1
11 2 17 5 13 3 -3 4 -12 1 -19z m151 -13 c7 -77 39 -253 92 -510 127 -605 161
-879 190 -1540 6 -121 22 -328 37 -460 14 -132 26 -289 27 -350 1 -136 -12
-167 -74 -183 -37 -9 -41 -8 -35 6 31 81 30 239 -4 472 -26 176 -39 351 -51
700 -28 799 -43 942 -140 1365 -53 230 -80 392 -80 480 0 48 2 56 18 53 11 -2
18 -14 20 -33z m1014 -1759 c114 -41 218 -93 309 -153 72 -48 72 -49 35 -96
-13 -16 -17 -15 -72 16 -33 18 -70 41 -84 50 -29 18 -100 49 -100 43 0 -2 20
-14 45 -26 25 -12 45 -25 45 -30 0 -9 -67 -70 -78 -70 -4 0 -13 4 -21 9 -16
11 -3 21 43 32 l31 7 -31 1 c-54 2 -110 81 -57 81 9 0 13 3 10 7 -4 3 -17 1
-30 -6 -19 -10 -30 -9 -67 8 l-45 20 -25 -24 c-20 -19 -27 -21 -37 -10 -18 20
-146 -18 -206 -61 -27 -19 -60 -39 -74 -45 -14 -5 -23 -12 -20 -16 4 -3 21 0
39 8 18 7 40 12 50 11 9 -2 43 8 76 22 l60 24 21 -22 c12 -12 21 -26 21 -29 0
-4 -15 -23 -34 -42 -24 -23 -40 -32 -54 -28 -18 4 -19 8 -10 29 17 37 0 46
-57 29 -27 -9 -60 -22 -73 -31 -23 -15 -25 -14 -40 8 -10 12 -17 26 -17 30 0
16 145 121 238 172 72 39 109 54 131 52 31 -3 304 -131 384 -181 23 -14 42
-22 42 -17 0 25 -380 217 -413 208 -14 -3 -16 0 -12 15 12 38 -266 -124 -357
-209 l-48 -44 25 -20 c14 -11 25 -25 25 -31 0 -6 -18 7 -40 28 -22 21 -40 42
-40 46 0 13 145 131 218 176 63 40 173 92 194 93 4 0 49 -15 100 -34z m0 -150
c18 -13 16 -16 -22 -46 l-42 -33 -26 26 -26 26 24 26 c26 28 54 28 92 1z
m-123 -31 c20 -56 -4 -73 -46 -33 -26 24 -29 38 -11 56 22 22 44 13 57 -23z
m-79 6 c0 -10 -139 -65 -146 -58 -6 6 50 41 97 61 33 14 49 13 49 -3z m257
-23 c30 -28 29 -42 -2 -34 -19 5 -31 -1 -56 -28 -28 -31 -33 -34 -56 -23 l-26
11 54 48 c30 26 56 48 58 48 3 0 15 -10 28 -22z m-132 -28 c9 -15 -24 -63 -38
-57 -7 2 -21 1 -32 -4 -17 -6 -17 -8 -2 -8 26 -1 20 -27 -12 -50 -25 -18 -30
-19 -41 -6 -6 8 -8 20 -4 27 16 27 58 67 65 62 5 -3 16 7 25 21 18 27 29 31
39 15z m-195 -53 c0 -7 -16 -28 -35 -47 l-35 -34 -35 18 c-34 18 -34 20 -15
33 22 15 88 41 108 42 6 1 12 -5 12 -12z m228 -45 c-2 -9 -23 -26 -47 -39 -25
-13 -52 -30 -61 -38 -9 -8 -22 -15 -28 -15 -22 0 -12 22 23 54 19 18 35 40 35
48 0 9 8 18 18 20 25 6 63 -13 60 -30z m-223 -29 c-8 -35 -9 -35 -29 -27 -21
8 -20 23 2 40 27 21 35 17 27 -13z m295 -69 c-8 -8 -25 -14 -39 -12 -21 2 -27
10 -32 38 -3 19 -1 43 3 52 7 15 13 12 44 -22 31 -34 34 -42 24 -56z m-242 67
c13 -12 20 -25 16 -35 -13 -35 -67 -5 -58 32 8 27 12 27 42 3z m160 -47 c-4
-23 -73 -43 -89 -27 -8 8 2 18 32 37 45 26 64 23 57 -10z m189 10 c9 -24 -23
-44 -69 -44 l-38 0 16 24 c23 36 80 48 91 20z m-139 -73 c-5 -20 -67 -20 -79
1 -10 17 13 26 53 20 20 -3 28 -9 26 -21z m75 -3 c-18 -18 -24 -19 -37 -8 -25
20 -19 30 21 30 l37 0 -21 -22z m-1144 -640 c79 -82 140 -148 135 -148 -22 -1
-612 196 -606 202 14 13 307 99 322 94 3 0 70 -67 149 -148z"/>
<path d="M2662 3330 c-1 -40 22 -109 30 -94 3 5 8 21 12 37 8 36 23 34 31 -3
7 -30 -10 -100 -24 -100 -4 0 -13 11 -18 23 -10 21 -76 82 -138 127 -19 14
-19 14 -5 -5 8 -11 23 -31 35 -44 11 -13 14 -21 6 -16 -9 5 -12 4 -7 -3 4 -7
15 -12 25 -12 27 0 97 -72 104 -106 7 -41 3 -40 -23 1 -12 20 -24 34 -27 31
-3 -3 11 -31 31 -63 20 -32 36 -62 36 -66 0 -3 -15 2 -32 13 -18 11 -44 20
-58 21 -25 0 -25 0 -3 9 14 6 21 15 17 24 -10 26 -154 113 -154 93 0 -2 26
-20 59 -40 80 -50 88 -61 53 -77 l-27 -14 35 -5 c19 -4 54 -15 77 -26 47 -22
53 -36 74 -155 15 -84 30 -55 22 43 -5 58 -3 71 14 90 26 29 53 74 53 87 0 6
-13 4 -31 -5 -17 -9 -33 -14 -36 -11 -9 9 17 63 30 63 7 0 41 19 77 43 49 32
58 41 35 36 -16 -4 -47 -21 -69 -37 -42 -31 -53 -32 -38 -2 14 27 44 129 34
118 -5 -6 -27 -60 -50 -120 -30 -79 -42 -126 -43 -165 l0 -55 -20 64 -20 64
32 33 c18 19 30 36 27 39 -3 3 -17 -8 -32 -25 -21 -26 -26 -28 -26 -12 0 10 6
40 14 66 10 32 11 57 5 79 -10 35 -38 80 -39 60 0 -6 -5 -24 -12 -40 l-11 -28
-13 50 c-11 46 -12 47 -12 15z m168 -259 c0 -3 -11 -19 -25 -36 l-25 -30 2 35
c1 29 6 35 25 36 13 1 23 -1 23 -5z"/>
<path d="M2794 3259 c-21 -23 -23 -29 -9 -21 25 13 62 52 48 52 -5 0 -22 -14
-39 -31z"/>
<path d="M3115 2804 c-11 -2 -157 -17 -325 -35 -168 -17 -309 -35 -313 -39
-12 -11 23 -312 37 -327 8 -9 31 -8 96 2 47 8 195 28 330 45 135 18 248 35
252 38 8 8 -24 292 -35 310 -5 6 -11 11 -15 11 -4 -1 -16 -3 -27 -5z m-25 -83
c0 -12 -25 -21 -57 -21 -19 0 -24 -4 -19 -16 3 -9 6 -22 6 -30 0 -9 10 -13 33
-11 17 1 34 -2 37 -8 3 -6 -12 -11 -33 -13 -35 -3 -38 -6 -35 -30 3 -25 7 -27
47 -28 42 0 74 -24 34 -24 -10 0 -34 -3 -54 -6 -44 -7 -45 -5 -54 108 l-7 76
28 5 c53 8 74 7 74 -2z m-163 -33 c20 -16 4 -29 -17 -15 -31 19 -54 -2 -58
-51 -2 -23 2 -50 8 -62 11 -21 54 -28 65 -10 3 6 10 10 16 10 17 0 9 -20 -16
-36 -36 -24 -73 -11 -91 31 -41 100 22 190 93 133z m-172 -10 c12 -34 21 -178
11 -175 -13 4 -35 187 -23 187 4 0 10 -6 12 -12z m-95 -18 c26 -26 26 -76 1
-92 -19 -11 -18 -13 6 -45 36 -47 18 -55 -23 -10 -42 46 -57 47 -52 5 2 -18
-1 -34 -7 -36 -10 -3 -17 28 -29 130 -7 56 -7 57 21 61 55 8 63 7 83 -13z"/>
<path d="M2587 2644 c-4 -4 -7 -20 -7 -36 0 -24 4 -28 29 -28 36 0 59 25 44
48 -11 18 -54 28 -66 16z"/>
<path d="M2980 2320 c-58 -40 -107 -87 -98 -95 2 -3 37 22 76 56 40 33 72 55
72 49 0 -13 -100 -116 -120 -122 -8 -3 -12 -9 -8 -13 9 -9 48 15 83 52 32 34
68 100 57 106 -4 3 -32 -12 -62 -33z"/>
<path d="M2669 2302 c40 -56 110 -102 156 -102 14 0 14 2 0 24 -21 32 -80 72
-133 90 l-43 15 20 -27z m121 -61 c14 -12 20 -21 14 -21 -13 0 -100 55 -109
70 -9 14 61 -22 95 -49z"/>
<path d="M2518 2213 c35 -50 100 -118 106 -112 3 3 -18 32 -47 65 l-52 59 57
-47 c61 -52 86 -64 48 -23 -24 26 -111 85 -124 85 -4 0 1 -12 12 -27z"/>
<path d="M2737 2159 c7 -7 15 -10 18 -7 3 3 -2 9 -12 12 -14 6 -15 5 -6 -5z"/>
<path d="M2394 2045 c38 -36 71 -63 75 -60 3 3 -15 23 -39 45 -52 45 -47 52
10 14 22 -15 42 -25 45 -23 6 7 -93 72 -113 74 -9 0 -24 4 -32 9 -8 4 16 -22
54 -59z m-9 35 c3 -5 2 -10 -4 -10 -5 0 -13 5 -16 10 -3 6 -2 10 4 10 5 0 13
-4 16 -10z"/>
<path d="M3430 1784 c0 -5 -43 -58 -95 -119 -95 -109 -191 -242 -182 -252 3
-2 19 15 35 39 17 24 70 91 118 149 99 119 140 177 130 186 -3 3 -6 2 -6 -3z"/>
<path d="M2290 1716 c66 -27 179 -85 238 -121 23 -14 42 -21 42 -15 0 21 -156
108 -264 146 -63 23 -76 15 -16 -10z"/>
<path d="M3399 1670 c-35 -34 -59 -60 -52 -58 15 4 125 109 120 114 -2 2 -33
-23 -68 -56z"/>
<path d="M2350 1636 c0 -9 152 -87 163 -83 7 2 -16 18 -51 36 -69 35 -112 53
-112 47z"/>
<path d="M3329 1541 c-101 -75 -130 -101 -112 -101 6 0 211 155 231 175 3 3 1
5 -4 5 -5 0 -57 -36 -115 -79z"/>
<path d="M2680 1484 c28 -36 60 -84 71 -105 10 -21 24 -39 30 -39 16 0 -49
115 -93 165 -60 68 -65 54 -8 -21z"/>
<path d="M2790 1473 c38 -68 50 -83 50 -62 0 15 -66 119 -76 119 -3 0 9 -26
26 -57z"/>
<path d="M3360 1449 c-83 -29 -83 -29 -78 -34 5 -6 108 28 135 44 27 16 4 12
-57 -10z"/>
<path d="M3195 1380 c-16 -4 -164 -41 -327 -81 l-298 -72 0 -59 c0 -42 4 -58
14 -58 7 0 121 27 252 59 131 33 281 69 332 81 l92 22 0 59 c0 64 -2 66 -65
49z m-258 -132 c-3 -8 -6 -5 -6 6 -1 11 2 17 5 13 3 -3 4 -12 1 -19z m43 10
c0 -4 -4 -8 -9 -8 -6 0 -12 4 -15 8 -3 5 1 9 9 9 8 0 15 -4 15 -9z m-137 -33
c-7 -21 -13 -19 -13 6 0 11 4 18 10 14 5 -3 7 -12 3 -20z m-52 -8 c-10 -9 -11
-8 -5 6 3 10 9 15 12 12 3 -3 0 -11 -7 -18z"/>
<path d="M3367 1325 c-64 -18 -81 -24 -74 -31 5 -5 147 35 147 42 0 6 -21 3
-73 -11z"/>
<path d="M2385 1270 c86 -47 121 -62 100 -41 -14 14 -167 91 -180 91 -5 0 31
-23 80 -50z"/>
<path d="M2438 1213 c7 -3 16 -2 19 1 4 3 -2 6 -13 5 -11 0 -14 -3 -6 -6z"/>
<path d="M2490 1118 c-36 -11 -69 -24 -75 -30 -7 -7 -4 -8 10 -5 109 31 135
40 135 48 0 5 -1 9 -2 8 -2 0 -32 -10 -68 -21z"/>
<path d="M1854 2569 c-44 -60 -124 -213 -124 -236 0 -19 108 145 151 230 16
31 25 57 20 57 -5 0 -26 -23 -47 -51z"/>
<path d="M1747 1601 c-9 -78 -9 -198 0 -229 19 -74 30 92 14 233 l-6 60 -8
-64z"/>
<path d="M2868 2023 c12 -2 30 -2 40 0 9 3 -1 5 -23 4 -22 0 -30 -2 -17 -4z"/>
</g>
</svg>